<svg width="15" height="8" viewBox="0 0 15 8" fill="none" xmlns="http://www.w3.org/2000/svg">
<path fill-rule="evenodd" clip-rule="evenodd" d="M0.751915 0.818322C0.947177 0.623059 1.26376 0.623059 1.45902 0.818322L7.60547 6.96477L13.7519 0.818322C13.9472 0.623059 14.2638 0.623059 14.459 0.818322C14.6543 1.01358 14.6543 1.33017 14.459 1.52543L8.31364 7.67081C8.22326 7.7653 8.11485 7.84077 7.9948 7.89274C7.8719 7.94594 7.7394 7.97339 7.60547 7.97339C7.47154 7.97339 7.33903 7.94594 7.21613 7.89274C7.09608 7.84077 6.98768 7.7653 6.8973 7.67081L0.751915 1.52543C0.556653 1.33017 0.556653 1.01358 0.751915 0.818322Z" fill="white"/>
</svg>
