<svg width="34" height="24" viewBox="0 0 34 24" fill="none" xmlns="http://www.w3.org/2000/svg">
<path d="M23.6031 4.30044C23.1938 3.89469 22.533 3.89764 22.1272 4.30702C21.7215 4.71641 21.7244 5.3772 22.1338 5.78295L24.587 8.21438C25.5827 9.20117 26.2656 9.88029 26.7278 10.4557C26.8779 10.6427 26.9951 10.8074 27.0861 10.9557L6.17011 10.9557C5.59372 10.9557 5.12646 11.423 5.12646 11.9993C5.12646 12.5757 5.59372 13.043 6.17011 13.043L27.0861 13.043C26.9951 13.1913 26.8779 13.356 26.7278 13.543C26.2656 14.1184 25.5827 14.7975 24.587 15.7843L22.1338 18.2157C21.7244 18.6215 21.7215 19.2823 22.1272 19.6917C22.533 20.1011 23.1938 20.104 23.6031 19.6983L26.1006 17.223C27.0412 16.2908 27.81 15.5288 28.3552 14.85C28.9221 14.144 29.3326 13.4274 29.4422 12.5673C29.4662 12.3787 29.4782 12.189 29.4782 11.9993C29.4782 11.8096 29.4662 11.6199 29.4422 11.4314C29.3326 10.5713 28.9221 9.8547 28.3552 9.14874C27.81 8.46985 27.0412 7.70792 26.1006 6.77566L23.6031 4.30044Z" fill="#202454"/>
</svg>
