<svg width="12" height="12" viewBox="0 0 12 12" fill="none" xmlns="http://www.w3.org/2000/svg">
<path d="M8.26398 3.23365C8.11688 3.08786 7.87945 3.08892 7.73365 3.23602C7.58786 3.38312 7.58892 3.62055 7.73602 3.76635L8.61751 4.64C8.97525 4.99457 9.22065 5.23859 9.3867 5.44535C9.44067 5.51255 9.48277 5.5717 9.51546 5.625L2 5.625C1.79289 5.625 1.625 5.79289 1.625 6C1.625 6.20711 1.79289 6.375 2 6.375L9.51546 6.375C9.48277 6.4283 9.44067 6.48745 9.3867 6.55465C9.22065 6.76141 8.97525 7.00543 8.61751 7.36L7.73602 8.23365C7.58892 8.37945 7.58786 8.61688 7.73365 8.76398C7.87945 8.91108 8.11688 8.91214 8.26398 8.76635L9.16135 7.87695C9.49933 7.54198 9.77557 7.26821 9.97147 7.02427C10.1752 6.77061 10.3227 6.51314 10.362 6.20408C10.3707 6.13632 10.375 6.06816 10.375 6C10.375 5.93184 10.3707 5.86368 10.362 5.79592C10.3227 5.48686 10.1752 5.22939 9.97147 4.97573C9.77557 4.73179 9.49933 4.45802 9.16134 4.12304L8.26398 3.23365Z" fill="#202454"/>
</svg>
