<svg width="15" height="9" viewBox="0 0 15 9" fill="none" xmlns="http://www.w3.org/2000/svg">
<path fill-rule="evenodd" clip-rule="evenodd" d="M0.773438 4.5C0.773438 4.22386 0.997295 4 1.27344 4H14.2734C14.5496 4 14.7734 4.22386 14.7734 4.5C14.7734 4.77614 14.5496 5 14.2734 5H1.27344C0.997295 5 0.773438 4.77614 0.773438 4.5Z" fill="#4ABBF3"/>
<path fill-rule="evenodd" clip-rule="evenodd" d="M10.4199 0.646447C10.6151 0.451184 10.9317 0.451184 11.127 0.646447L14.627 4.14645C14.8223 4.34171 14.8223 4.65829 14.627 4.85355L11.127 8.35355C10.9317 8.54882 10.6151 8.54882 10.4199 8.35355C10.2246 8.15829 10.2246 7.84171 10.4199 7.64645L13.5663 4.5L10.4199 1.35355C10.2246 1.15829 10.2246 0.841709 10.4199 0.646447Z" fill="#4ABBF3"/>
</svg>
