<svg width="25" height="25" viewBox="0 0 25 25" fill="none" xmlns="http://www.w3.org/2000/svg">
<path d="M4.90403 4.49348L4.35863 3.94786L4.35863 3.94786L4.90403 4.49348ZM9.85378 4.49348L10.3992 3.94786L9.85378 4.49348ZM9.85378 9.44129L9.30838 8.89568L9.30838 8.89568L9.85378 9.44129ZM15.8642 15.4494L15.3188 14.9037L15.8642 15.4494ZM20.8139 20.3972L20.2685 19.8516L20.2685 19.8516L20.8139 20.3972ZM8.43957 16.863L7.89417 17.4086L8.43957 16.863ZM3.89744 7.32803L4.66889 7.32365C4.66875 7.2987 4.6674 7.27376 4.66484 7.24894L3.89744 7.32803ZM17.9783 21.4034L18.0573 20.636C18.0325 20.6334 18.0076 20.6321 17.9826 20.6319L17.9783 21.4034ZM7.9345 10.4219L7.81272 9.66012C7.56594 9.69957 7.35355 9.85612 7.24285 10.0802C7.13215 10.3043 7.13684 10.5681 7.25545 10.788L7.9345 10.4219ZM14.8832 17.3679L14.5173 18.0471C14.7372 18.1656 15.001 18.1702 15.225 18.0595C15.449 17.9488 15.6055 17.7365 15.645 17.4898L14.8832 17.3679ZM5.44943 5.03909C6.51502 3.97392 8.24279 3.97392 9.30838 5.03909L10.3992 3.94786C8.73109 2.28043 6.02672 2.28043 4.35863 3.94786L5.44943 5.03909ZM9.30838 5.03909C10.3738 6.10409 10.3738 7.83067 9.30838 8.89568L10.3992 9.9869C12.0674 8.3193 12.0674 5.61546 10.3992 3.94786L9.30838 5.03909ZM16.4096 15.995C17.4752 14.9298 19.2029 14.9298 20.2685 15.995L21.3593 14.9037C19.6912 13.2363 16.9869 13.2363 15.3188 14.9037L16.4096 15.995ZM20.2685 15.995C21.334 17.06 21.334 18.7866 20.2685 19.8516L21.3593 20.9428C23.0276 19.2752 23.0276 16.5713 21.3593 14.9037L20.2685 15.995ZM8.98497 16.3174C6.16215 13.4957 4.68468 10.1063 4.66889 7.32365L3.12599 7.33241C3.14459 10.6102 4.85362 14.3693 7.89417 17.4086L8.98497 16.3174ZM4.66484 7.24894C4.58339 6.45869 4.84528 5.643 5.44943 5.03909L4.35863 3.94786C3.41217 4.89396 3.003 6.17455 3.13004 7.40712L4.66484 7.24894ZM20.2685 19.8516C19.6644 20.4555 18.8482 20.7174 18.0573 20.636L17.8992 22.1708C19.132 22.2977 20.4129 21.8889 21.3593 20.9428L20.2685 19.8516ZM17.9826 20.6319C15.1986 20.6161 11.8078 19.1391 8.98497 16.3174L7.89417 17.4086C10.9347 20.448 14.6951 22.1562 17.9739 22.1748L17.9826 20.6319ZM9.30838 8.89568C8.88547 9.31842 8.36033 9.57258 7.81272 9.66012L8.05628 11.1837C8.91398 11.0466 9.73882 10.647 10.3992 9.9869L9.30838 8.89568ZM11.4598 13.8435C10.2733 12.6574 9.31962 11.3653 8.61355 10.0558L7.25545 10.788C8.03487 12.2336 9.07972 13.6459 10.369 14.9347L11.4598 13.8435ZM15.645 17.4898C15.7325 16.9425 15.9867 16.4177 16.4096 15.995L15.3188 14.9037C14.6584 15.5638 14.2586 16.3885 14.1214 17.246L15.645 17.4898ZM15.2491 16.6887C13.939 15.9829 12.6464 15.0295 11.4598 13.8435L10.369 14.9347C11.6584 16.2235 13.0712 17.268 14.5173 18.0471L15.2491 16.6887Z" fill="#4ABBF3"/>
<path fill-rule="evenodd" clip-rule="evenodd" d="M22.238 3.06342C22.5309 3.35631 22.5309 3.83119 22.238 4.12408L17.8614 8.5006H20.2934C20.7076 8.5006 21.0434 8.83639 21.0434 9.2506C21.0434 9.66482 20.7076 10.0006 20.2934 10.0006H16.0508C15.6366 10.0006 15.3008 9.66482 15.3008 9.2506V5.00796C15.3008 4.59375 15.6366 4.25796 16.0508 4.25796C16.465 4.25796 16.8008 4.59375 16.8008 5.00796V7.43994L21.1773 3.06342C21.4702 2.77053 21.9451 2.77053 22.238 3.06342Z" fill="#4ABBF3"/>
</svg>
