<svg width="37" height="36" viewBox="0 0 37 36" fill="none" xmlns="http://www.w3.org/2000/svg">
<path d="M34.5234 15.75H30.4889L24.3984 9.65954C24.1903 9.4497 23.9425 9.28333 23.6694 9.17011C23.3964 9.05689 23.1036 8.99907 22.808 9.00001H7.00031C6.63074 9.0007 6.26703 9.0924 5.94132 9.26703C5.61561 9.44166 5.33792 9.69383 5.13281 10.0013L0.961875 16.2506C0.839323 16.4358 0.773804 16.6529 0.773438 16.875L0.773438 23.625C0.773438 24.2217 1.01049 24.794 1.43245 25.216C1.8544 25.638 2.4267 25.875 3.02344 25.875H5.41406C5.6619 26.843 6.22485 27.7009 7.01416 28.3136C7.80347 28.9263 8.77425 29.2588 9.77344 29.2588C10.7726 29.2588 11.7434 28.9263 12.5327 28.3136C13.322 27.7009 13.885 26.843 14.1328 25.875H23.4141C23.6619 26.843 24.2248 27.7009 25.0142 28.3136C25.8035 28.9263 26.7742 29.2588 27.7734 29.2588C28.7726 29.2588 29.7434 28.9263 30.5327 28.3136C31.322 27.7009 31.885 26.843 32.1328 25.875H34.5234C35.1202 25.875 35.6925 25.638 36.1144 25.216C36.5364 24.794 36.7734 24.2217 36.7734 23.625V18C36.7734 17.4033 36.5364 16.831 36.1144 16.409C35.6925 15.9871 35.1202 15.75 34.5234 15.75ZM7.00031 11.25H22.808L27.308 15.75H4.00781L7.00031 11.25ZM9.77344 27C9.32843 27 8.89342 26.8681 8.5234 26.6208C8.15339 26.3736 7.86501 26.0222 7.69471 25.611C7.52441 25.1999 7.47985 24.7475 7.56667 24.3111C7.65349 23.8746 7.86778 23.4737 8.18245 23.159C8.49712 22.8444 8.89803 22.6301 9.33448 22.5432C9.77094 22.4564 10.2233 22.501 10.6345 22.6713C11.0456 22.8416 11.397 23.13 11.6442 23.5C11.8915 23.87 12.0234 24.305 12.0234 24.75C12.0234 25.3467 11.7864 25.919 11.3644 26.341C10.9425 26.763 10.3702 27 9.77344 27ZM27.7734 27C27.3284 27 26.8934 26.8681 26.5234 26.6208C26.1534 26.3736 25.865 26.0222 25.6947 25.611C25.5244 25.1999 25.4799 24.7475 25.5667 24.3111C25.6535 23.8746 25.8678 23.4737 26.1824 23.159C26.4971 22.8444 26.898 22.6301 27.3345 22.5432C27.7709 22.4564 28.2233 22.501 28.6345 22.6713C29.0456 22.8416 29.397 23.13 29.6442 23.5C29.8915 23.87 30.0234 24.305 30.0234 24.75C30.0234 25.3467 29.7864 25.919 29.3644 26.341C28.9425 26.763 28.3702 27 27.7734 27ZM34.5234 23.625H32.1328C31.885 22.657 31.322 21.7991 30.5327 21.1864C29.7434 20.5737 28.7726 20.2412 27.7734 20.2412C26.7742 20.2412 25.8035 20.5737 25.0142 21.1864C24.2248 21.7991 23.6619 22.657 23.4141 23.625H14.1328C13.885 22.657 13.322 21.7991 12.5327 21.1864C11.7434 20.5737 10.7726 20.2412 9.77344 20.2412C8.77425 20.2412 7.80347 20.5737 7.01416 21.1864C6.22485 21.7991 5.6619 22.657 5.41406 23.625H3.02344V18H34.5234V23.625Z" fill="#4ABBF3"/>
</svg>
