<svg width="21" height="21" viewBox="0 0 21 21" fill="none" xmlns="http://www.w3.org/2000/svg">
<g clip-path="url(#clip0_1963_146027)">
<path fill-rule="evenodd" clip-rule="evenodd" d="M3.99132 8.13308H17.555C17.8575 8.12821 18.1572 8.19081 18.4325 8.31636C18.7104 8.44308 18.9561 8.63069 19.1516 8.86529C19.3471 9.09989 19.4874 9.37547 19.5619 9.67162C19.6363 9.96721 19.6434 10.2757 19.5826 10.5744C19.5825 10.575 19.5824 10.5755 19.5823 10.5761L18.1686 17.6444L18.168 17.6472C18.0729 18.1139 17.817 18.5325 17.4451 18.8301C17.0753 19.1259 16.6141 19.2835 16.1408 19.2759H5.40557C4.93227 19.2835 4.47102 19.1259 4.10126 18.8301C3.7293 18.5325 3.47346 18.1139 3.37829 17.6472L3.37773 17.6444L1.96407 10.5761C1.96395 10.5755 1.96384 10.575 1.96372 10.5744C1.90295 10.2757 1.91003 9.96721 1.98443 9.67162C2.05897 9.37548 2.19919 9.0999 2.39469 8.86529C2.59019 8.63069 2.83597 8.44308 3.11381 8.31636C3.3891 8.19081 3.68887 8.12821 3.99132 8.13308ZM3.96941 9.63292C3.88907 9.6313 3.80938 9.64777 3.73626 9.68111C3.66314 9.71446 3.59847 9.76383 3.54702 9.82557C3.49557 9.88731 3.45867 9.95983 3.43906 10.0378C3.41944 10.1157 3.41761 10.197 3.4337 10.2758L3.43432 10.2788L3.43432 10.2788L4.84805 17.3475C4.84812 17.3479 4.8482 17.3483 4.84828 17.3486C4.8735 17.471 4.94072 17.5807 5.0383 17.6588C5.13619 17.7371 5.25843 17.7786 5.38376 17.7761L5.39888 17.7759H16.1475L16.1626 17.7761C16.2879 17.7786 16.4101 17.7371 16.508 17.6588C16.6057 17.5807 16.6729 17.4709 16.6981 17.3485C16.6982 17.3482 16.6982 17.3479 16.6983 17.3475L18.112 10.2788L18.1126 10.2758C18.1287 10.197 18.1269 10.1157 18.1073 10.0378C18.0877 9.95983 18.0508 9.88731 17.9993 9.82557C17.9479 9.76383 17.8832 9.71446 17.8101 9.68111C17.737 9.64777 17.6573 9.6313 17.5769 9.63292L17.5617 9.63308H3.9846L3.96941 9.63292Z" fill="#4ABBF3"/>
<path fill-rule="evenodd" clip-rule="evenodd" d="M12.9728 3.73176C13.3324 3.52625 13.7905 3.6512 13.996 4.01084L16.5675 8.51084C16.773 8.87047 16.648 9.32862 16.2884 9.53412C15.9287 9.73963 15.4706 9.61468 15.2651 9.25504L12.6937 4.75505C12.4882 4.39541 12.6131 3.93727 12.9728 3.73176Z" fill="#4ABBF3"/>
<path fill-rule="evenodd" clip-rule="evenodd" d="M8.57354 3.73176C8.93318 3.93727 9.05813 4.39541 8.85262 4.75505L6.28119 9.25504C6.07569 9.61468 5.61755 9.73963 5.25791 9.53412C4.89827 9.32862 4.77332 8.87047 4.97883 8.51084L7.55026 4.01084C7.75576 3.6512 8.21391 3.52625 8.57354 3.73176Z" fill="#4ABBF3"/>
</g>
<defs>
<clipPath id="clip0_1963_146027">
<rect width="18" height="18" fill="white" transform="translate(1.77344 1.16992)"/>
</clipPath>
</defs>
</svg>
