<svg width="29" height="29" viewBox="0 0 29 29" fill="none" xmlns="http://www.w3.org/2000/svg">
<path fill-rule="evenodd" clip-rule="evenodd" d="M3.77047 9.40275H24.8783C25.2726 9.39581 25.6635 9.47714 26.0224 9.64081C26.3834 9.80545 26.7027 10.0492 26.9567 10.354C27.2107 10.6588 27.3929 11.0168 27.4897 11.4016C27.5865 11.7859 27.5956 12.1871 27.5164 12.5755C27.5163 12.5759 27.5162 12.5763 27.5162 12.5767L25.3167 23.574L25.3162 23.5764C25.1926 24.1828 24.8602 24.7266 24.3769 25.1132C23.8955 25.4984 23.2947 25.7032 22.6784 25.6924H5.97042C5.35412 25.7032 4.75332 25.4984 4.27188 25.1132C3.78862 24.7266 3.45624 24.1828 3.33259 23.5764L3.33212 23.574L1.13265 12.5767C1.13255 12.5762 1.13246 12.5757 1.13236 12.5753C1.05324 12.187 1.06237 11.7859 1.1591 11.4016C1.25595 11.0168 1.43812 10.6588 1.69211 10.354C1.94611 10.0492 2.26542 9.80545 2.62641 9.64081C2.98527 9.47714 3.37617 9.39581 3.77047 9.40275ZM3.75135 10.6922C3.5481 10.6881 3.34652 10.7298 3.16155 10.8142C2.97659 10.8985 2.81297 11.0234 2.68283 11.1796C2.55268 11.3358 2.45934 11.5192 2.40971 11.7164C2.36009 11.9135 2.35546 12.1193 2.39616 12.3185L2.3967 12.3211L4.59621 23.3187C4.59628 23.3191 4.59635 23.3194 4.59643 23.3198C4.65995 23.6301 4.83016 23.9083 5.0775 24.1062C5.32512 24.3043 5.63436 24.4093 5.9514 24.4029L5.9644 24.4026L22.6974 24.4028C23.0145 24.4091 23.3237 24.3043 23.5713 24.1062C23.8187 23.9083 23.9889 23.63 24.0524 23.3197C24.0525 23.3194 24.0523 23.32 24.0524 23.3197L26.2521 12.3211L26.2526 12.3185C26.2933 12.1193 26.2887 11.9135 26.2391 11.7164C26.1895 11.5192 26.0961 11.3358 25.966 11.1796C25.8358 11.0234 25.6722 10.8985 25.4873 10.8142C25.3023 10.7298 25.1007 10.6881 24.8975 10.6922L24.8844 10.6925L3.75135 10.6922Z" fill="white"/>
<path fill-rule="evenodd" clip-rule="evenodd" d="M18.0047 2.48741C18.3139 2.31073 18.7078 2.41815 18.8845 2.72735L22.8845 9.72735C23.0611 10.0365 22.9537 10.4304 22.6445 10.6071C22.3353 10.7838 21.9414 10.6764 21.7648 10.3672L17.7648 3.36718C17.5881 3.05798 17.6955 2.6641 18.0047 2.48741Z" fill="white"/>
<path fill-rule="evenodd" clip-rule="evenodd" d="M10.6445 2.48741C10.9537 2.6641 11.0611 3.05798 10.8845 3.36718L6.88446 10.3672C6.70778 10.6764 6.31389 10.7838 6.00469 10.6071C5.69549 10.4304 5.58807 10.0365 5.76476 9.72735L9.76476 2.72735C9.94144 2.41815 10.3353 2.31073 10.6445 2.48741Z" fill="white"/>
</svg>
