<svg width="28" height="29" viewBox="0 0 28 29" fill="none" xmlns="http://www.w3.org/2000/svg">
<path fill-rule="evenodd" clip-rule="evenodd" d="M9.3335 22.1143C8.78121 22.1143 8.3335 22.562 8.3335 23.1143C8.3335 23.6665 8.78121 24.1143 9.3335 24.1143C9.88578 24.1143 10.3335 23.6665 10.3335 23.1143C10.3335 22.562 9.88578 22.1143 9.3335 22.1143ZM6.8335 23.1143C6.8335 21.7335 7.95278 20.6143 9.3335 20.6143C10.7142 20.6143 11.8335 21.7335 11.8335 23.1143C11.8335 24.495 10.7142 25.6143 9.3335 25.6143C7.95278 25.6143 6.8335 24.495 6.8335 23.1143ZM18.6668 22.1143C18.1145 22.1143 17.6668 22.562 17.6668 23.1143C17.6668 23.6665 18.1145 24.1143 18.6668 24.1143C19.2191 24.1143 19.6668 23.6665 19.6668 23.1143C19.6668 22.562 19.2191 22.1143 18.6668 22.1143ZM16.1668 23.1143C16.1668 21.7335 17.2861 20.6143 18.6668 20.6143C20.0475 20.6143 21.1668 21.7335 21.1668 23.1143C21.1668 24.495 20.0475 25.6143 18.6668 25.6143C17.2861 25.6143 16.1668 24.495 16.1668 23.1143Z" fill="#202454"/>
<path fill-rule="evenodd" clip-rule="evenodd" d="M2.75 5.03027C2.75 4.61606 3.08579 4.28027 3.5 4.28027C5.20279 4.28027 6.58319 5.66058 6.58333 7.36333C7.21008 6.89257 7.98913 6.61361 8.83333 6.61361H21.3373C24.1426 6.61361 25.9546 9.58093 24.6733 12.0764L22.0633 17.1598C21.4211 18.4105 20.1333 19.1969 18.7273 19.1969H8.83334C6.76227 19.1969 5.08333 17.518 5.08333 15.4469V7.36361C5.08333 6.48915 4.37445 5.78027 3.5 5.78027C3.08579 5.78027 2.75 5.44449 2.75 5.03027ZM6.58333 10.3636V15.4469C6.58333 16.6896 7.59069 17.6969 8.83334 17.6969H18.7273C19.5709 17.6969 20.3436 17.2251 20.7289 16.4746L23.3389 11.3913C24.1077 9.894 23.0205 8.11361 21.3373 8.11361H8.83333C7.59069 8.11361 6.58333 9.12097 6.58333 10.3636Z" fill="#202454"/>
</svg>
