<svg width="25" height="24" viewBox="0 0 25 24" fill="none" xmlns="http://www.w3.org/2000/svg">
<path fill-rule="evenodd" clip-rule="evenodd" d="M7.41996 17.1836C7.2247 16.9884 7.2247 16.6718 7.41996 16.4765L17.3195 6.57703C17.5147 6.38177 17.8313 6.38177 18.0266 6.57703C18.2218 6.77229 18.2218 7.08887 18.0266 7.28414L8.12707 17.1836C7.9318 17.3789 7.61522 17.3789 7.41996 17.1836Z" fill="#202454"/>
<path fill-rule="evenodd" clip-rule="evenodd" d="M7.41988 6.4766C7.61515 6.28134 7.93173 6.28134 8.12699 6.4766L18.0265 16.3761C18.2217 16.5714 18.2217 16.8879 18.0265 17.0832C17.8312 17.2785 17.5146 17.2785 17.3194 17.0832L7.41988 7.18371C7.22462 6.98844 7.22462 6.67186 7.41988 6.4766Z" fill="#202454"/>
</svg>
