<svg width="16" height="16" viewBox="0 0 16 16" fill="none" xmlns="http://www.w3.org/2000/svg">
<path d="M8.36328 4.1123C10.3846 4.1123 12.1585 5.57591 13.2951 6.81004C13.802 7.36054 14.0555 7.63579 14.1413 8.20776C14.1623 8.3476 14.1623 8.62701 14.1413 8.76685C14.0555 9.33882 13.802 9.61407 13.2951 10.1646C12.1585 11.3987 10.3846 12.8623 8.36328 12.8623C6.34199 12.8623 4.56804 11.3987 3.4315 10.1646C2.92454 9.61407 2.67105 9.33882 2.58528 8.76685C2.56431 8.62701 2.56431 8.3476 2.58528 8.20775C2.67105 7.63579 2.92454 7.36054 3.4315 6.81004C4.56804 5.57591 6.34199 4.1123 8.36328 4.1123Z" stroke="#202454" stroke-width="0.942505" stroke-linejoin="round"/>
<path d="M10.2383 8.48731C10.2383 9.52284 9.39882 10.3623 8.36328 10.3623C7.32775 10.3623 6.48828 9.52284 6.48828 8.48731C6.48828 7.45177 7.32775 6.6123 8.36328 6.6123C9.39882 6.6123 10.2383 7.45177 10.2383 8.48731Z" stroke="#202454" stroke-width="0.942505" stroke-linejoin="round"/>
<path fill-rule="evenodd" clip-rule="evenodd" d="M1.56832 1.69047C1.76358 1.49521 2.08017 1.49521 2.27543 1.69047L15.0034 14.4184C15.1986 14.6137 15.1986 14.9302 15.0034 15.1255C14.8081 15.3208 14.4915 15.3208 14.2962 15.1255L1.56832 2.39757C1.37306 2.20231 1.37306 1.88573 1.56832 1.69047Z" fill="#202454"/>
</svg>
