<svg width="10" height="10" viewBox="0 0 10 10" xmlns="http://www.w3.org/2000/svg">
<path fill-rule="evenodd" clip-rule="evenodd" d="M1.14464 8.85176C0.948395 8.65749 0.948395 8.34251 1.14464 8.14824L8.14464 1.21859C8.34089 1.02431 8.65906 1.02431 8.85531 1.21859C9.05156 1.41286 9.05156 1.72784 8.85531 1.92211L1.85531 8.85176C1.65906 9.04604 1.34089 9.04604 1.14464 8.85176Z"/>
<path fill-rule="evenodd" clip-rule="evenodd" d="M1.14467 1.14864C1.34091 0.954365 1.65909 0.954365 1.85533 1.14864L8.85533 8.07829C9.05158 8.27256 9.05158 8.58754 8.85533 8.78182C8.65909 8.97609 8.34091 8.97609 8.14467 8.78182L1.14467 1.85217C0.94842 1.65789 0.94842 1.34291 1.14467 1.14864Z"/>
</svg>
