<svg width="29" height="29" viewBox="0 0 29 29" fill="none" xmlns="http://www.w3.org/2000/svg">
<path fill-rule="evenodd" clip-rule="evenodd" d="M3.11426 24.9816C3.11426 24.4761 3.524 24.0664 4.02943 24.0664H21.9727C22.4781 24.0664 22.8878 24.4761 22.8878 24.9816C22.8878 25.487 22.4781 25.8968 21.9727 25.8968H4.02943C3.524 25.8968 3.11426 25.487 3.11426 24.9816Z" fill="#000001"/>
<path fill-rule="evenodd" clip-rule="evenodd" d="M21.8748 4.68191C21.7802 4.68191 21.6866 4.70063 21.5994 4.73698C21.5121 4.77333 21.4329 4.8266 21.3664 4.89371L21.3628 4.89734L10.5937 15.6343L10.0364 19.0232L13.3715 18.4229L24.1139 7.64847L24.1175 7.64485C24.1846 7.57829 24.2379 7.4991 24.2743 7.41184C24.3106 7.32459 24.3293 7.231 24.3293 7.13647C24.3293 7.04195 24.3106 6.94836 24.2743 6.86111C24.2379 6.77385 24.1846 6.69466 24.1175 6.62809L24.1149 6.62545L22.3831 4.89372C22.3166 4.82661 22.2374 4.77333 22.1501 4.73698C22.0629 4.70063 21.9693 4.68191 21.8748 4.68191ZM20.8955 3.0474C21.2058 2.91812 21.5386 2.85156 21.8748 2.85156C22.2109 2.85156 22.5437 2.91812 22.854 3.0474C23.1637 3.17642 23.4449 3.36536 23.6813 3.60337C23.6818 3.60384 23.6822 3.60431 23.6827 3.60478L25.4065 5.32855C25.407 5.32905 25.4075 5.32956 25.408 5.33006C25.6459 5.56647 25.8348 5.84756 25.9638 6.1572C26.0931 6.4675 26.1597 6.80032 26.1597 7.13647C26.1597 7.47263 26.0931 7.80545 25.9638 8.11575C25.8349 8.42513 25.6463 8.70601 25.4086 8.94229C25.4079 8.94299 25.4072 8.9437 25.4065 8.9444L14.4647 19.9188C14.3326 20.0513 14.1629 20.1402 13.9787 20.1733L9.08513 21.0542C8.79252 21.1068 8.49257 21.0141 8.28077 20.8055C8.06897 20.5968 7.97171 20.2983 8.01996 20.0049L8.83556 15.0461C8.8667 14.8568 8.95656 14.682 9.09244 14.5465L20.0668 3.60478C20.0675 3.60411 20.0682 3.60344 20.0688 3.60277C20.3051 3.36505 20.5861 3.17631 20.8955 3.0474Z" fill="#000001"/>
</svg>
