<svg width="16" height="16" viewBox="0 0 16 16" fill="none" xmlns="http://www.w3.org/2000/svg">
<path fill-rule="evenodd" clip-rule="evenodd" d="M8.36264 4.58411C6.55448 4.58411 4.90134 5.90949 3.77751 7.12983C3.26127 7.6904 3.11225 7.86761 3.05068 8.27819C3.03666 8.3717 3.03666 8.604 3.05068 8.69752C3.11225 9.1081 3.26127 9.28531 3.77751 9.84588C4.90134 11.0662 6.55448 12.3916 8.36264 12.3916C10.1708 12.3916 11.8239 11.0662 12.9478 9.84588C13.464 9.28531 13.613 9.1081 13.6746 8.69752C13.6886 8.604 13.6886 8.3717 13.6746 8.27819C13.613 7.86761 13.464 7.6904 12.9478 7.12983C11.8239 5.90949 10.1708 4.58411 8.36264 4.58411ZM3.0842 6.49136C4.23344 5.24343 6.12822 3.6416 8.36264 3.6416C10.5971 3.6416 12.4918 5.24343 13.6411 6.49136C13.653 6.50435 13.6649 6.51724 13.6767 6.53005C14.1558 7.04994 14.4993 7.42271 14.6067 8.13842C14.6346 8.32459 14.6346 8.65111 14.6067 8.83729C14.4993 9.553 14.1558 9.92577 13.6767 10.4457C13.6649 10.4585 13.653 10.4714 13.6411 10.4844C12.4918 11.7323 10.5971 13.3341 8.36264 13.3341C6.12822 13.3341 4.23344 11.7323 3.0842 10.4844C3.07224 10.4714 3.06036 10.4585 3.04855 10.4457C2.56945 9.92577 2.22592 9.553 2.1186 8.83729C2.09068 8.65111 2.09068 8.32459 2.1186 8.13842C2.22592 7.42271 2.56945 7.04994 3.04856 6.53005C3.06036 6.51724 3.07224 6.50435 3.0842 6.49136Z" fill="#202454"/>
<path fill-rule="evenodd" clip-rule="evenodd" d="M8.36578 7.08313C7.59052 7.08313 6.96204 7.71161 6.96204 8.48688C6.96204 9.26215 7.59052 9.89063 8.36578 9.89063C9.14105 9.89063 9.76953 9.26215 9.76953 8.48688C9.76953 7.71161 9.14105 7.08313 8.36578 7.08313ZM6.01953 8.48688C6.01953 7.19108 7.06998 6.14062 8.36578 6.14062C9.66158 6.14062 10.712 7.19108 10.712 8.48688C10.712 9.78268 9.66158 10.8331 8.36578 10.8331C7.06998 10.8331 6.01953 9.78268 6.01953 8.48688Z" fill="#202454"/>
</svg>
