<svg width="25" height="25" viewBox="0 0 25 25" fill="none" xmlns="http://www.w3.org/2000/svg">
<g clip-path="url(#clip0_1963_120743)">
<path d="M24.2598 12.4873C24.2598 5.85988 18.8872 0.487305 12.2598 0.487305C5.63234 0.487305 0.259766 5.85988 0.259766 12.4873C0.259766 18.4768 4.64797 23.4413 10.3848 24.3415V15.9561H7.33789V12.4873H10.3848V9.84356C10.3848 6.83606 12.1763 5.1748 14.9173 5.1748C16.2298 5.1748 17.6035 5.40918 17.6035 5.40918V8.3623H16.0904C14.5998 8.3623 14.1348 9.28738 14.1348 10.2373V12.4873H17.4629L16.9309 15.9561H14.1348V24.3415C19.8716 23.4413 24.2598 18.4768 24.2598 12.4873Z" fill="#1877F2"/>
<path d="M16.9309 15.9561L17.4629 12.4873H14.1348V10.2373C14.1348 9.28832 14.5998 8.3623 16.0904 8.3623H17.6035V5.40918C17.6035 5.40918 16.2303 5.1748 14.9173 5.1748C12.1763 5.1748 10.3848 6.83605 10.3848 9.84355V12.4873H7.33789V15.9561H10.3848V24.3415C11.6272 24.5359 12.8923 24.5359 14.1348 24.3415V15.9561H16.9309Z" fill="white"/>
</g>
<defs>
<clipPath id="clip0_1963_120743">
<rect width="24" height="24" fill="white" transform="translate(0.259766 0.487305)"/>
</clipPath>
</defs>
</svg>
