<svg width="25" height="25" viewBox="0 0 25 25" fill="none" xmlns="http://www.w3.org/2000/svg">
<g clip-path="url(#clip0_1963_120744)">
<path d="M24.026 12.7636C24.026 11.9478 23.9599 11.1277 23.8188 10.3252H12.5V14.9462H18.9817C18.7128 16.4365 17.8485 17.7549 16.5831 18.5927V21.591H20.45C22.7209 19.501 24.026 16.4145 24.026 12.7636Z" fill="#4285F4"/>
<path d="M12.5008 24.4876C15.7373 24.4876 18.4667 23.425 20.4553 21.5907L16.5883 18.5924C15.5124 19.3243 14.1235 19.7388 12.5053 19.7388C9.37463 19.7388 6.72021 17.6267 5.76779 14.7871H1.77734V17.8781C3.81446 21.9302 7.96364 24.4876 12.5008 24.4876Z" fill="#34A853"/>
<path d="M5.76254 14.788C5.25987 13.2977 5.25987 11.6838 5.76254 10.1935V7.10254H1.7765C0.0744994 10.4933 0.0744994 14.4882 1.7765 17.8789L5.76254 14.788Z" fill="#FBBC04"/>
<path d="M12.5008 5.23696C14.2117 5.21051 15.8652 5.85427 17.1042 7.03597L20.5302 3.60992C18.3608 1.57281 15.4816 0.452839 12.5008 0.488113C7.96364 0.488113 3.81446 3.04553 1.77734 7.10211L5.76338 10.1931C6.71139 7.34904 9.37022 5.23696 12.5008 5.23696Z" fill="#EA4335"/>
</g>
<defs>
<clipPath id="clip0_1963_120744">
<rect width="24" height="24" fill="white" transform="translate(0.259766 0.487305)"/>
</clipPath>
</defs>
</svg>
