<svg width="21" height="21" viewBox="0 0 21 21" fill="none" xmlns="http://www.w3.org/2000/svg">
<g clip-path="url(#clip0_1963_146050)">
<path d="M1.4873 13.0269L10.773 3.74121L20.0587 13.0269" fill="#4ABBF3"/>
<path fill-rule="evenodd" clip-rule="evenodd" d="M10.2427 3.21088C10.5356 2.91799 11.0105 2.91799 11.3033 3.21088L20.5891 12.4966C20.882 12.7895 20.882 13.2644 20.5891 13.5573C20.2962 13.8501 19.8213 13.8501 19.5284 13.5573L10.773 4.80187L2.01763 13.5573C1.72474 13.8501 1.24987 13.8501 0.956975 13.5573C0.664081 13.2644 0.664081 12.7895 0.956975 12.4966L10.2427 3.21088Z" fill="#4ABBF3"/>
<path d="M4.34473 10.1699V19.4556H17.2019V10.1699" fill="#4ABBF3"/>
<path fill-rule="evenodd" clip-rule="evenodd" d="M4.34473 9.41992C4.75894 9.41992 5.09473 9.75571 5.09473 10.1699V18.7056H16.4519V10.1699C16.4519 9.75571 16.7877 9.41992 17.2019 9.41992C17.6161 9.41992 17.9519 9.75571 17.9519 10.1699V19.4556C17.9519 19.8699 17.6161 20.2056 17.2019 20.2056H4.34473C3.93051 20.2056 3.59473 19.8699 3.59473 19.4556V10.1699C3.59473 9.75571 3.93051 9.41992 4.34473 9.41992Z" fill="#4ABBF3"/>
<path fill-rule="evenodd" clip-rule="evenodd" d="M10.7734 12.9912C11.1877 12.9912 11.5234 13.327 11.5234 13.7412V19.4555C11.5234 19.8697 11.1877 20.2055 10.7734 20.2055C10.3592 20.2055 10.0234 19.8697 10.0234 19.4555V13.7412C10.0234 13.327 10.3592 12.9912 10.7734 12.9912Z" fill="#4ABBF3"/>
</g>
<defs>
<clipPath id="clip0_1963_146050">
<rect width="20" height="20" fill="white" transform="translate(0.773438 0.169922)"/>
</clipPath>
</defs>
</svg>
