<svg width="21" height="21" viewBox="0 0 21 21" fill="none" xmlns="http://www.w3.org/2000/svg">
<g clip-path="url(#clip0_1963_146039)">
<path fill-rule="evenodd" clip-rule="evenodd" d="M3.40542 10.1009L10.7734 16.7748L18.1413 10.1009C19.9013 8.32669 19.5224 5.68637 17.9849 4.15358C17.2323 3.40328 16.2365 2.96472 15.1342 3.04289C14.032 3.12106 12.7098 3.72507 11.3359 5.28283C11.1935 5.44425 10.9886 5.53673 10.7734 5.53673C10.5581 5.53673 10.3533 5.44425 10.2109 5.28283C8.83707 3.72516 7.51265 3.11887 6.40734 3.03879C5.30204 2.9587 4.30367 3.39561 3.55003 4.14393C2.01207 5.67106 1.62966 8.311 3.40542 10.1009ZM10.7734 3.69598C9.37817 2.32497 7.91921 1.6444 6.51574 1.54271C4.92237 1.42726 3.51271 2.06713 2.49313 3.07953C0.488288 5.07024 -0.13827 8.67861 2.35732 11.1742C2.36606 11.1829 2.375 11.1914 2.38415 11.1997L10.2699 18.3426C10.5556 18.6014 10.9911 18.6014 11.2769 18.3426L19.1626 11.1997C19.1717 11.1914 19.1807 11.1829 19.1894 11.1742C21.6722 8.69138 21.0422 5.08345 19.044 3.09131C18.0269 2.07732 16.6201 1.43374 15.0281 1.54664C13.6259 1.64609 12.1682 2.32537 10.7734 3.69598Z" fill="#4ABBF3"/>
</g>
<defs>
<clipPath id="clip0_1963_146039">
<rect width="20" height="20" fill="white" transform="translate(0.773438 0.169922)"/>
</clipPath>
</defs>
</svg>
