<svg width="29" height="28" viewBox="0 0 29 28" fill="none" xmlns="http://www.w3.org/2000/svg">
<path fill-rule="evenodd" clip-rule="evenodd" d="M4.55638 14.2293L14.0075 22.79L23.4586 14.2293C25.7806 11.8928 25.2687 8.42614 23.2638 6.4273C22.2775 5.44399 20.9643 4.8625 19.5063 4.96591C18.0482 5.06931 16.3316 5.86672 14.57 7.8641C14.4276 8.02553 14.2227 8.118 14.0075 8.118C13.7922 8.118 13.5874 8.02553 13.445 7.8641C11.6834 5.86682 9.9642 5.06666 8.50247 4.96074C7.04075 4.85483 5.72433 5.43396 4.7365 6.41483C2.73013 8.40705 2.21477 11.8733 4.55638 14.2293ZM14.0075 6.26887C12.2272 4.46776 10.3741 3.59242 8.61087 3.46467C6.66108 3.32339 4.93337 4.10548 3.6796 5.35042C1.20636 7.80623 0.44678 12.241 3.50841 15.3026C3.51714 15.3114 3.52609 15.3199 3.53524 15.3282L13.504 24.3578C13.7897 24.6167 14.2252 24.6167 14.511 24.3578L24.4797 15.3282C24.4889 15.3199 24.4978 15.3114 24.5065 15.3026C27.5516 12.2576 26.7885 7.82321 24.3229 5.36504C23.0721 4.11803 21.348 3.33152 19.4001 3.46966C17.6387 3.59458 15.7874 4.46819 14.0075 6.26887Z" fill="#202454"/>
</svg>
