<svg width="126" height="22" viewBox="0 0 126 22" fill="none" xmlns="http://www.w3.org/2000/svg">
<path d="M11.9884 8.95349C13.046 9.31163 13.8695 9.87442 14.459 10.6419C15.0657 11.3922 15.3691 12.2705 15.3691 13.2767C15.3691 14.3682 15.0051 15.3147 14.2769 16.1163C13.5488 16.9178 12.5606 17.5318 11.3123 17.9581C10.0814 18.3845 8.72912 18.5977 7.25548 18.5977C6.00723 18.5977 4.75897 18.4442 3.51072 18.1372C2.2798 17.8302 1.10956 17.3612 0 16.7302L1.30027 13.7628C2.09776 14.2403 2.97327 14.607 3.9268 14.8628C4.89767 15.1016 5.84253 15.2209 6.76138 15.2209C8.00964 15.2209 9.04118 14.9992 9.85601 14.5558C10.6882 14.1124 11.1043 13.4899 11.1043 12.6884C11.1043 12.0233 10.8182 11.5202 10.2461 11.1791C9.69131 10.838 8.92849 10.6674 7.95763 10.6674H3.51072V7.54651H7.64556C8.49507 7.54651 9.15387 7.37597 9.62197 7.03488C10.1074 6.6938 10.3501 6.22481 10.3501 5.62791C10.3501 4.92868 10.0034 4.38295 9.3099 3.9907C8.63376 3.59845 7.75825 3.40233 6.68337 3.40233C5.88587 3.40233 5.06237 3.51318 4.21286 3.73488C3.36335 3.93953 2.55719 4.25504 1.79437 4.6814L0.520106 1.45814C2.4445 0.486046 4.52492 0 6.76138 0C8.18301 0 9.49194 0.204651 10.6882 0.613953C11.8844 1.02326 12.838 1.62015 13.5488 2.40465C14.2596 3.18915 14.615 4.10155 14.615 5.14186C14.615 5.99457 14.3809 6.75349 13.9128 7.4186C13.4447 8.08372 12.8033 8.59535 11.9884 8.95349Z" fill="#4ABBF3"/>
<path d="M27.3901 18.5977C25.5004 18.5977 23.7927 18.1969 22.267 17.3953C20.7587 16.5938 19.5712 15.4938 18.7043 14.0953C17.8548 12.6798 17.4301 11.0938 17.4301 9.33721C17.4301 7.58062 17.8548 6.0031 18.7043 4.60465C19.5712 3.18915 20.7587 2.08062 22.267 1.27907C23.7927 0.47752 25.5004 0.0767447 27.3901 0.0767447C29.2798 0.0767447 30.9788 0.47752 32.4871 1.27907C33.9954 2.08062 35.183 3.18915 36.0499 4.60465C36.9167 6.0031 37.3501 7.58062 37.3501 9.33721C37.3501 11.0938 36.9167 12.6798 36.0499 14.0953C35.183 15.4938 33.9954 16.5938 32.4871 17.3953C30.9788 18.1969 29.2798 18.5977 27.3901 18.5977ZM27.3901 15.0674C28.465 15.0674 29.4358 14.8287 30.3027 14.3512C31.1695 13.8566 31.8457 13.1744 32.3311 12.3047C32.8339 11.4349 33.0853 10.4457 33.0853 9.33721C33.0853 8.22868 32.8339 7.23953 32.3311 6.36977C31.8457 5.5 31.1695 4.82636 30.3027 4.34884C29.4358 3.85426 28.465 3.60698 27.3901 3.60698C26.3152 3.60698 25.3443 3.85426 24.4775 4.34884C23.6107 4.82636 22.9259 5.5 22.4231 6.36977C21.9376 7.23953 21.6949 8.22868 21.6949 9.33721C21.6949 10.4457 21.9376 11.4349 22.4231 12.3047C22.9259 13.1744 23.6107 13.8566 24.4775 14.3512C25.3443 14.8287 26.3152 15.0674 27.3901 15.0674Z" fill="#4ABBF3"/>
<path d="M49.2813 18.5977C47.3916 18.5977 45.6839 18.1969 44.1582 17.3953C42.6499 16.5938 41.4624 15.4938 40.5955 14.0953C39.746 12.6798 39.3213 11.0938 39.3213 9.33721C39.3213 7.58062 39.746 6.0031 40.5955 4.60465C41.4624 3.18915 42.6499 2.08062 44.1582 1.27907C45.6839 0.47752 47.3916 0.0767447 49.2813 0.0767447C51.171 0.0767447 52.87 0.47752 54.3783 1.27907C55.8866 2.08062 57.0742 3.18915 57.9411 4.60465C58.8079 6.0031 59.2413 7.58062 59.2413 9.33721C59.2413 11.0938 58.8079 12.6798 57.9411 14.0953C57.0742 15.4938 55.8866 16.5938 54.3783 17.3953C52.87 18.1969 51.171 18.5977 49.2813 18.5977ZM49.2813 15.0674C50.3562 15.0674 51.327 14.8287 52.1939 14.3512C53.0607 13.8566 53.7369 13.1744 54.2223 12.3047C54.7251 11.4349 54.9765 10.4457 54.9765 9.33721C54.9765 8.22868 54.7251 7.23953 54.2223 6.36977C53.7369 5.5 53.0607 4.82636 52.1939 4.34884C51.327 3.85426 50.3562 3.60698 49.2813 3.60698C48.2064 3.60698 47.2355 3.85426 46.3687 4.34884C45.5018 4.82636 44.817 5.5 44.3143 6.36977C43.8288 7.23953 43.5861 8.22868 43.5861 9.33721C43.5861 10.4457 43.8288 11.4349 44.3143 12.3047C44.817 13.1744 45.5018 13.8566 46.3687 14.3512C47.2355 14.8287 48.2064 15.0674 49.2813 15.0674Z" fill="#4ABBF3"/>
<path d="M80.7546 14.914V22H76.8538V18.2907H64.0072V22H60.1064L60.1324 14.914H60.8606C61.9528 14.8798 62.7243 14.0953 63.175 12.5605C63.6258 11.0256 63.9032 8.83411 64.0072 5.98605L64.2152 0.383721H78.2061V14.914H80.7546ZM67.726 6.36977C67.6393 8.50155 67.4572 10.2922 67.1798 11.7419C66.9025 13.1744 66.4777 14.2318 65.9056 14.914H74.0453V3.76047H67.804L67.726 6.36977Z" fill="#4ABBF3"/>
<path d="M92.2764 18.5977C90.3867 18.5977 88.679 18.1969 87.1534 17.3953C85.645 16.5938 84.4575 15.4938 83.5906 14.0953C82.7411 12.6798 82.3164 11.0938 82.3164 9.33721C82.3164 7.58062 82.7411 6.0031 83.5906 4.60465C84.4575 3.18915 85.645 2.08062 87.1534 1.27907C88.679 0.47752 90.3867 0.0767447 92.2764 0.0767447C94.1661 0.0767447 95.8651 0.47752 97.3734 1.27907C98.8817 2.08062 100.069 3.18915 100.936 4.60465C101.803 6.0031 102.236 7.58062 102.236 9.33721C102.236 11.0938 101.803 12.6798 100.936 14.0953C100.069 15.4938 98.8817 16.5938 97.3734 17.3953C95.8651 18.1969 94.1661 18.5977 92.2764 18.5977ZM92.2764 15.0674C93.3513 15.0674 94.3222 14.8287 95.189 14.3512C96.0558 13.8566 96.732 13.1744 97.2174 12.3047C97.7202 11.4349 97.9716 10.4457 97.9716 9.33721C97.9716 8.22868 97.7202 7.23953 97.2174 6.36977C96.732 5.5 96.0558 4.82636 95.189 4.34884C94.3222 3.85426 93.3513 3.60698 92.2764 3.60698C91.2015 3.60698 90.2307 3.85426 89.3638 4.34884C88.497 4.82636 87.8122 5.5 87.3094 6.36977C86.824 7.23953 86.5812 8.22868 86.5812 9.33721C86.5812 10.4457 86.824 11.4349 87.3094 12.3047C87.8122 13.1744 88.497 13.8566 89.3638 14.3512C90.2307 14.8287 91.2015 15.0674 92.2764 15.0674Z" fill="#4ABBF3"/>
<path d="M122.047 18.2907L122.021 7.57209L116.664 16.3977H114.792L109.435 7.77674V18.2907H105.482V0.383721H108.967L115.78 11.5116L122.489 0.383721H125.974L126 18.2907H122.047Z" fill="#4ABBF3"/>
</svg>
