<svg width="33" height="32" viewBox="0 0 33 32" fill="none" xmlns="http://www.w3.org/2000/svg">
<path fill-rule="evenodd" clip-rule="evenodd" d="M2.34961 23.7786V8.83327C2.34961 6.97833 3.85333 5.47461 5.70827 5.47461H27.4469C29.3018 5.47461 30.8055 6.97834 30.8055 8.83327V23.7786C30.8055 25.6335 29.3018 27.1372 27.4469 27.1372H5.70827C3.85333 27.1372 2.34961 25.6335 2.34961 23.7786ZM4.34961 8.83327V23.7786C4.34961 24.5289 4.9579 25.1372 5.70827 25.1372H27.4469C28.1972 25.1372 28.8055 24.5289 28.8055 23.7786V8.83327C28.8055 8.08291 28.1972 7.47461 27.4469 7.47461H5.70827C4.9579 7.47461 4.34961 8.0829 4.34961 8.83327Z" fill="#4ABBF3"/>
<path fill-rule="evenodd" clip-rule="evenodd" d="M16.0229 17.1383L3.79492 8.98637L4.90432 7.32227L16.5776 15.1044L28.2509 7.32227L29.3603 8.98637L17.1323 17.1383C16.7964 17.3623 16.3588 17.3623 16.0229 17.1383Z" fill="#4ABBF3"/>
</svg>
