<svg width="37" height="36" viewBox="0 0 37 36" fill="none" xmlns="http://www.w3.org/2000/svg">
<path fill-rule="evenodd" clip-rule="evenodd" d="M17.6069 8.16634C17.6069 6.87768 18.6516 5.83301 19.9403 5.83301C21.2289 5.83301 22.2736 6.87768 22.2736 8.16634C22.2736 9.45501 21.2289 10.4997 19.9403 10.4997C18.6516 10.4997 17.6069 9.45501 17.6069 8.16634Z" fill="#4ABBF3"/>
<path fill-rule="evenodd" clip-rule="evenodd" d="M17.1402 22.4004C17.6556 22.787 17.7601 23.5183 17.3735 24.0337L13.8735 28.7004C13.4869 29.2159 12.7556 29.3203 12.2402 28.9337C11.7247 28.5471 11.6202 27.8159 12.0068 27.3004L15.5068 22.6337C15.8934 22.1183 16.6247 22.0138 17.1402 22.4004Z" fill="#4ABBF3"/>
<path fill-rule="evenodd" clip-rule="evenodd" d="M18.9651 11.6821C19.6007 11.788 20.03 12.3891 19.9241 13.0247L18.8561 19.4324L21.9316 22.5079C22.0202 22.5966 22.094 22.699 22.1501 22.8111L24.4835 27.4778C24.7716 28.0541 24.538 28.7549 23.9617 29.043C23.3854 29.3312 22.6846 29.0976 22.3965 28.5213L20.1478 24.024L16.7817 20.6578C16.5152 20.3914 16.3939 20.0127 16.4558 19.6411L17.6225 12.6411C17.7284 12.0055 18.3295 11.5761 18.9651 11.6821Z" fill="#4ABBF3"/>
<path fill-rule="evenodd" clip-rule="evenodd" d="M18.4903 11.7019C18.8878 11.6025 19.3084 11.7189 19.5982 12.0087L22.9034 15.314L26.1422 16.3936C26.7534 16.5973 27.0838 17.258 26.88 17.8693C26.6763 18.4806 26.0156 18.8109 25.4043 18.6071L21.9043 17.4405C21.7325 17.3832 21.5763 17.2867 21.4483 17.1586L18.4154 14.1257L14.8271 15.0228L12.744 18.1475C12.3866 18.6836 11.6622 18.8285 11.1261 18.4711C10.59 18.1137 10.4451 17.3893 10.8025 16.8532L13.1358 13.3532C13.2968 13.1117 13.542 12.9389 13.8236 12.8685L18.4903 11.7019Z" fill="#4ABBF3"/>
</svg>
