<svg width="41" height="40" viewBox="0 0 41 40" fill="none" xmlns="http://www.w3.org/2000/svg">
<path fill-rule="evenodd" clip-rule="evenodd" d="M20.7734 35.2239C29.7481 35.2239 37.0234 28.1783 37.0234 19.487C37.0234 10.7957 29.7481 3.75 20.7734 3.75C11.7988 3.75 4.52344 10.7957 4.52344 19.487C4.52344 24.214 6.67554 28.4542 10.0826 31.3389V34.5235C10.0826 35.7681 11.3504 36.6029 12.4808 36.1026L16.0147 34.5384C17.5197 34.9841 19.1177 35.2239 20.7734 35.2239Z" fill="url(#paint0_linear_1963_127066)"/>
<path d="M16.8822 16.1416L12.17 22.5862C11.6647 23.2772 12.5734 24.1073 13.2651 23.5867L17.2888 20.5586C17.6983 20.2504 18.2725 20.2462 18.6868 20.5485L22.2653 23.159C22.9516 23.6596 23.9324 23.5157 24.4321 22.8409L29.3741 16.1676C29.8866 15.4755 28.971 14.6387 28.2782 15.1661L24.0242 18.4045C23.6146 18.7164 23.0374 18.7221 22.6212 18.4184L19.0543 15.8164C18.3651 15.3136 17.3797 15.4612 16.8822 16.1416Z" fill="white"/>
<defs>
<linearGradient id="paint0_linear_1963_127066" x1="20.7734" y1="3.75" x2="15.5592" y2="36.0729" gradientUnits="userSpaceOnUse">
<stop stop-color="#00B1FF"/>
<stop offset="1" stop-color="#006BFF"/>
</linearGradient>
</defs>
</svg>
