<svg width="21" height="21" viewBox="0 0 21 21" fill="none" xmlns="http://www.w3.org/2000/svg">
<g clip-path="url(#clip0_1963_146017)">
<path fill-rule="evenodd" clip-rule="evenodd" d="M5.05943 3.0625C4.87946 3.0625 4.70686 3.13399 4.57961 3.26125C4.45235 3.38851 4.38086 3.5611 4.38086 3.74107V18.0268C4.38086 18.2068 4.45235 18.3794 4.57961 18.5066C4.70687 18.6339 4.87946 18.7054 5.05943 18.7054H16.488C16.668 18.7054 16.8406 18.6339 16.9678 18.5066C17.0951 18.3793 17.1666 18.2068 17.1666 18.0268V3.74107C17.1666 3.5611 17.0951 3.38851 16.9678 3.26125C16.8406 3.13399 16.668 3.0625 16.488 3.0625H14.3451C13.9309 3.0625 13.5951 2.72671 13.5951 2.3125C13.5951 1.89829 13.9309 1.5625 14.3451 1.5625H16.488C17.0658 1.5625 17.6199 1.79203 18.0285 2.20059C18.437 2.60915 18.6666 3.16328 18.6666 3.74107V18.0268C18.6666 18.6046 18.437 19.1587 18.0285 19.5673C17.6199 19.9758 17.0658 20.2054 16.488 20.2054H5.05943C4.48164 20.2054 3.92751 19.9758 3.51895 19.5673C3.11039 19.1587 2.88086 18.6046 2.88086 18.0268V3.74107C2.88086 3.16328 3.11039 2.60915 3.51895 2.20059C3.92751 1.79203 4.48164 1.5625 5.05943 1.5625H7.20229C7.6165 1.5625 7.95229 1.89829 7.95229 2.3125C7.95229 2.72671 7.6165 3.0625 7.20229 3.0625H5.05943Z" fill="#4ABBF3"/>
<path fill-rule="evenodd" clip-rule="evenodd" d="M8.63072 1.63379C8.25596 1.63379 7.95215 1.9376 7.95215 2.31236V3.02665C7.95215 3.40141 8.25596 3.70522 8.63072 3.70522H12.9164C13.2912 3.70522 13.595 3.40141 13.595 3.02665V2.31236C13.595 1.9376 13.2912 1.63379 12.9164 1.63379H8.63072ZM6.45215 2.31236C6.45215 1.10917 7.42753 0.133789 8.63072 0.133789H12.9164C14.1196 0.133789 15.095 1.10917 15.095 2.31236V3.02665C15.095 4.22984 14.1196 5.20522 12.9164 5.20522H8.63072C7.42753 5.20522 6.45215 4.22984 6.45215 3.02665V2.31236Z" fill="#4ABBF3"/>
<path fill-rule="evenodd" clip-rule="evenodd" d="M6.45215 8.02637C6.45215 7.61215 6.78793 7.27637 7.20215 7.27637H14.345C14.7592 7.27637 15.095 7.61215 15.095 8.02637C15.095 8.44058 14.7592 8.77637 14.345 8.77637H7.20215C6.78793 8.77637 6.45215 8.44058 6.45215 8.02637Z" fill="#4ABBF3"/>
<path fill-rule="evenodd" clip-rule="evenodd" d="M6.45215 11.5977C6.45215 11.1834 6.78793 10.8477 7.20215 10.8477H14.345C14.7592 10.8477 15.095 11.1834 15.095 11.5977C15.095 12.0119 14.7592 12.3477 14.345 12.3477H7.20215C6.78793 12.3477 6.45215 12.0119 6.45215 11.5977Z" fill="#4ABBF3"/>
<path fill-rule="evenodd" clip-rule="evenodd" d="M6.45215 15.1699C6.45215 14.7557 6.78793 14.4199 7.20215 14.4199H14.345C14.7592 14.4199 15.095 14.7557 15.095 15.1699C15.095 15.5841 14.7592 15.9199 14.345 15.9199H7.20215C6.78793 15.9199 6.45215 15.5841 6.45215 15.1699Z" fill="#4ABBF3"/>
</g>
<defs>
<clipPath id="clip0_1963_146017">
<rect width="20" height="20" fill="white" transform="translate(0.773438 0.169922)"/>
</clipPath>
</defs>
</svg>
