<svg width="18" height="19" viewBox="0 0 18 19" fill="none" xmlns="http://www.w3.org/2000/svg">
<path fill-rule="evenodd" clip-rule="evenodd" d="M2.21633 6.5862H15.7817C16.0688 6.58146 16.3534 6.64082 16.6147 6.76C16.8782 6.88017 17.1113 7.05809 17.2967 7.28057C17.4821 7.50305 17.6151 7.76439 17.6858 8.04523C17.7563 8.3255 17.763 8.61803 17.7054 8.90122C17.7053 8.9018 17.7052 8.90238 17.7051 8.90296L16.2913 15.9718L16.2908 15.9741C16.2006 16.4168 15.958 16.8137 15.6052 17.0959C15.2543 17.3766 14.8166 17.5261 14.3674 17.5187H3.63062C3.18147 17.5261 2.74372 17.3766 2.39283 17.0959C2.04009 16.8137 1.79748 16.4168 1.70722 15.9741L1.70674 15.9718L0.292992 8.90296C0.292893 8.90248 0.292794 8.90199 0.292695 8.90151C0.235034 8.61822 0.241732 8.32559 0.312302 8.04523C0.382992 7.76439 0.515962 7.50305 0.701361 7.28057C0.88676 7.05809 1.11984 6.88017 1.38333 6.76C1.64464 6.64082 1.92922 6.58146 2.21633 6.5862ZM2.19741 7.87569C2.10128 7.87374 2.00595 7.89345 1.91848 7.93334C1.831 7.97324 1.75362 8.03231 1.69207 8.10617C1.63052 8.18002 1.58638 8.26679 1.56291 8.36002C1.53944 8.45326 1.53725 8.55058 1.5565 8.64477L1.55704 8.64741L2.97084 15.7165C2.97091 15.7168 2.97098 15.7171 2.97105 15.7175C3.00117 15.864 3.08161 15.9954 3.19845 16.0889C3.31556 16.1826 3.46181 16.2322 3.61175 16.2292L3.62475 16.2289L14.3863 16.2291C14.5363 16.2321 14.6825 16.1826 14.7996 16.0889C14.9164 15.9954 14.9969 15.864 15.027 15.7175C15.0271 15.7172 15.0272 15.7168 15.0272 15.7165L16.441 8.64741L16.4416 8.64477C16.4608 8.55058 16.4586 8.45326 16.4352 8.36002C16.4117 8.26679 16.3675 8.18003 16.306 8.10617C16.2444 8.03231 16.1671 7.97324 16.0796 7.93334C15.9921 7.89345 15.8968 7.87374 15.8007 7.87569L15.7876 7.87595L2.19741 7.87569Z" fill="#4CAF50"/>
<path fill-rule="evenodd" clip-rule="evenodd" d="M11.2508 2.17101C11.56 1.99432 11.9539 2.10174 12.1306 2.41094L14.702 6.91094C14.8787 7.22014 14.7712 7.61403 14.462 7.79071C14.1528 7.96739 13.759 7.85997 13.5823 7.55077L11.0108 3.05077C10.8342 2.74158 10.9416 2.34769 11.2508 2.17101Z" fill="#4CAF50"/>
<path fill-rule="evenodd" clip-rule="evenodd" d="M6.7472 2.17101C7.0564 2.34769 7.16382 2.74158 6.98714 3.05077L4.41571 7.55077C4.23903 7.85997 3.84514 7.96739 3.53594 7.79071C3.22674 7.61403 3.11932 7.22014 3.29601 6.91094L5.86743 2.41094C6.04412 2.10174 6.438 1.99432 6.7472 2.17101Z" fill="#4CAF50"/>
</svg>
