<svg width="16" height="16" viewBox="0 0 16 16" fill="none" xmlns="http://www.w3.org/2000/svg">
<g clip-path="url(#clip0_2450_53935)">
<path d="M11.3327 11.9993C11.7009 11.9993 11.9993 11.7009 11.9993 11.3327C11.9993 10.9645 11.7009 10.666 11.3327 10.666C10.9645 10.666 10.666 10.9645 10.666 11.3327C10.666 11.7009 10.9645 11.9993 11.3327 11.9993Z" stroke="#202454" stroke-width="2" stroke-linecap="round" stroke-linejoin="round"/>
<path d="M4.66667 5.33333C5.03486 5.33333 5.33333 5.03486 5.33333 4.66667C5.33333 4.29848 5.03486 4 4.66667 4C4.29848 4 4 4.29848 4 4.66667C4 5.03486 4.29848 5.33333 4.66667 5.33333Z" stroke="#202454" stroke-width="2" stroke-linecap="round" stroke-linejoin="round"/>
<path d="M4 12L12 4" stroke="#202454" stroke-width="2" stroke-linecap="round" stroke-linejoin="round"/>
</g>
<defs>
<clipPath id="clip0_2450_53935">
<rect width="16" height="16" fill="white"/>
</clipPath>
</defs>
</svg>
