<svg width="29" height="29" viewBox="0 0 29 29" fill="none" xmlns="http://www.w3.org/2000/svg">
<path fill-rule="evenodd" clip-rule="evenodd" d="M20.4702 18.9212C19.7604 18.9212 19.1849 19.4967 19.1849 20.2066C19.1849 20.9165 19.7604 21.4919 20.4702 21.4919C21.1801 21.4919 21.7556 20.9165 21.7556 20.2066C21.7556 19.4967 21.1801 18.9212 20.4702 18.9212ZM24.0889 20.2066C24.0889 22.2051 22.4688 23.8253 20.4702 23.8253C18.4717 23.8253 16.8516 22.2051 16.8516 20.2066C16.8516 18.208 18.4717 16.5879 20.4702 16.5879C22.4688 16.5879 24.0889 18.208 24.0889 20.2066Z" fill="#FE9382"/>
<path fill-rule="evenodd" clip-rule="evenodd" d="M8.80423 7.25521C8.09435 7.25521 7.51888 7.83068 7.51888 8.54056C7.51888 9.25044 8.09435 9.82591 8.80423 9.82591C9.51411 9.82591 10.0896 9.25044 10.0896 8.54056C10.0896 7.83068 9.51411 7.25521 8.80423 7.25521ZM12.4229 8.54056C12.4229 10.5391 10.8028 12.1592 8.80423 12.1592C6.80569 12.1592 5.18555 10.5391 5.18555 8.54056C5.18555 6.54202 6.80569 4.92188 8.80423 4.92188C10.8028 4.92188 12.4229 6.54202 12.4229 8.54056Z" fill="#FE9382"/>
<path fill-rule="evenodd" clip-rule="evenodd" d="M22.2875 6.7244C22.6466 7.08349 22.6466 7.66568 22.2875 8.02477L8.28747 22.0248C7.92838 22.3839 7.34618 22.3839 6.98709 22.0248C6.628 21.6657 6.628 21.0835 6.98709 20.7244L20.9871 6.7244C21.3462 6.36531 21.9284 6.36531 22.2875 6.7244Z" fill="#FE9382"/>
</svg>
