<svg width="21" height="21" viewBox="0 0 21 21" fill="none" xmlns="http://www.w3.org/2000/svg">
<g clip-path="url(#clip0_1963_146043)">
<path d="M14.9398 15.9196C15.8142 15.9196 16.5231 15.2107 16.5231 14.3363C16.5231 13.4618 15.8142 12.7529 14.9398 12.7529C14.0653 12.7529 13.3564 13.4618 13.3564 14.3363C13.3564 15.2107 14.0653 15.9196 14.9398 15.9196Z" stroke="#4ABBF3" stroke-width="1.5" stroke-linecap="round" stroke-linejoin="round"/>
<path d="M6.60677 7.58659C7.48122 7.58659 8.1901 6.87771 8.1901 6.00326C8.1901 5.1288 7.48122 4.41992 6.60677 4.41992C5.73232 4.41992 5.02344 5.1288 5.02344 6.00326C5.02344 6.87771 5.73232 7.58659 6.60677 7.58659Z" stroke="#4ABBF3" stroke-width="1.5" stroke-linecap="round" stroke-linejoin="round"/>
<path d="M5.77344 15.1699L15.7734 5.16992" stroke="#4ABBF3" stroke-width="1.5" stroke-linecap="round" stroke-linejoin="round"/>
</g>
<defs>
<clipPath id="clip0_1963_146043">
<rect width="20" height="20" fill="white" transform="translate(0.773438 0.169922)"/>
</clipPath>
</defs>
</svg>
