<svg width="25" height="25" viewBox="0 0 25 25" fill="none" xmlns="http://www.w3.org/2000/svg">
<path fill-rule="evenodd" clip-rule="evenodd" d="M8.55009 4.92235C7.47612 3.8488 5.73476 3.8488 4.6608 4.92235C4.05189 5.53102 3.78794 6.35317 3.87002 7.14958C3.87251 7.17371 3.87383 7.19795 3.87396 7.22221C3.8898 10.0118 5.37049 13.4063 8.19633 16.231C11.0222 19.0557 14.4181 20.536 17.2091 20.5518C17.2333 20.552 17.2575 20.5533 17.2816 20.5558C18.0787 20.6378 18.9013 20.3739 19.5102 19.7652C20.584 18.6918 20.584 16.9516 19.5102 15.8782C18.4363 14.8047 16.6949 14.8047 15.621 15.8782C15.1947 16.3043 14.9385 16.8333 14.8503 17.3848C14.8119 17.6247 14.6598 17.8311 14.442 17.9387C14.2242 18.0463 13.9678 18.0418 13.754 17.9266C12.3098 17.1485 10.8986 16.1054 9.61075 14.818C8.32286 13.5306 7.27928 12.12 6.50088 10.6763C6.38557 10.4624 6.38101 10.206 6.48863 9.98813C6.59625 9.7703 6.80273 9.61811 7.04265 9.57975C7.59457 9.49152 8.12388 9.23534 8.55009 8.80929C9.62389 7.73591 9.62389 5.99573 8.55009 4.92235ZM3.60034 3.86148C5.26005 2.20242 7.95084 2.20242 9.61054 3.86148C11.2704 5.5207 11.2704 8.21094 9.61054 9.87016C9.21852 10.262 8.76825 10.5616 8.28754 10.7685C8.92991 11.8022 9.72696 12.8132 10.6712 13.7571C11.6156 14.7012 12.6273 15.498 13.6616 16.1403C13.8686 15.6596 14.1684 15.2093 14.5605 14.8174C16.2202 13.1583 18.911 13.1583 20.5707 14.8174C22.2306 16.4766 22.2306 19.1668 20.5707 20.826C19.6385 21.7578 18.3803 22.1659 17.1652 22.0515C13.9017 22.0209 10.1625 20.3173 7.13588 17.2919C4.10931 14.2665 2.40487 10.5287 2.37425 7.26611C2.25982 6.05118 2.66817 4.79329 3.60034 3.86148Z" fill="#404040"/>
</svg>
