<svg width="33" height="32" viewBox="0 0 33 32" fill="none" xmlns="http://www.w3.org/2000/svg">
<path fill-rule="evenodd" clip-rule="evenodd" d="M11.7595 6.13605C10.3275 4.70465 8.00572 4.70465 6.57377 6.13605C5.76189 6.94761 5.40996 8.04381 5.51941 9.10568C5.52272 9.13786 5.52448 9.17018 5.52466 9.20253C5.54577 12.922 7.52003 17.448 11.2878 21.2143C15.0556 24.9806 19.5835 26.9542 23.3048 26.9753C23.3371 26.9755 23.3694 26.9773 23.4016 26.9806C24.4642 27.09 25.5611 26.7381 26.373 25.9265C27.8048 24.4953 27.8048 22.1751 26.373 20.7439C24.9411 19.3125 22.6193 19.3125 21.1873 20.7439C20.619 21.3119 20.2774 22.0173 20.1598 22.7527C20.1086 23.0725 19.9057 23.3477 19.6154 23.4912C19.325 23.6347 18.9832 23.6287 18.698 23.475C16.7724 22.4376 14.8909 21.0467 13.1737 19.3302C11.4565 17.6137 10.0651 15.7329 9.02722 13.808C8.87347 13.5228 8.86738 13.1809 9.01088 12.8904C9.15438 12.6 9.42968 12.3971 9.74957 12.3459C10.4855 12.2283 11.1912 11.8867 11.7595 11.3186C13.1912 9.88746 13.1912 7.56723 11.7595 6.13605ZM5.15983 4.72156C7.37277 2.50948 10.9605 2.50948 13.1734 4.72156C15.3866 6.93385 15.3866 10.5208 13.1734 12.7331C12.6507 13.2556 12.0504 13.6551 11.4094 13.931C12.2659 15.3092 13.3286 16.6572 14.5876 17.9157C15.8469 19.1745 17.1957 20.237 18.5748 21.0933C18.8509 20.4523 19.2506 19.852 19.7734 19.3294C21.9863 17.1173 25.574 17.1173 27.787 19.3294C30.0001 21.5417 30.0001 25.1287 27.787 27.341C26.5441 28.5834 24.8665 29.1275 23.2463 28.975C18.8949 28.9342 13.9093 26.6627 9.87388 22.6288C5.83845 18.5949 3.56586 13.6112 3.52505 9.26107C3.37247 7.64116 3.91694 5.96397 5.15983 4.72156Z" fill="#4ABBF3"/>
</svg>
