<svg width="34" height="34" viewBox="0 0 34 34" fill="none" xmlns="http://www.w3.org/2000/svg">
<path d="M34 17C34 26.3888 26.3888 34 17 34C7.61116 34 0 26.3888 0 17C0 7.61116 7.61116 0 17 0C26.3888 0 34 7.61116 34 17Z" fill="#4ABBF3"/>
<path fill-rule="evenodd" clip-rule="evenodd" d="M13.4446 9.60203C12.3707 8.52849 10.6293 8.52849 9.55533 9.60203C8.94642 10.2107 8.68247 11.0329 8.76456 11.8293C8.76704 11.8534 8.76836 11.8776 8.7685 11.9019C8.78433 14.6915 10.265 18.086 13.0909 20.9107C15.9167 23.7354 19.3126 25.2157 22.1036 25.2315C22.1278 25.2316 22.1521 25.233 22.1762 25.2354C22.9732 25.3175 23.7958 25.0536 24.4048 24.4449C25.4786 23.3715 25.4786 21.6313 24.4048 20.5579C23.3308 19.4844 21.5894 19.4844 20.5155 20.5579C20.0893 20.9839 19.8331 21.513 19.7448 22.0645C19.7065 22.3043 19.5543 22.5108 19.3365 22.6184C19.1188 22.726 18.8624 22.7215 18.6485 22.6063C17.2043 21.8282 15.7932 20.785 14.5053 19.4977C13.2174 18.2103 12.1738 16.7997 11.3954 15.356C11.2801 15.1421 11.2755 14.8856 11.3832 14.6678C11.4908 14.45 11.6973 14.2978 11.9372 14.2594C12.4891 14.1712 13.0184 13.915 13.4446 13.489C14.5184 12.4156 14.5184 10.6754 13.4446 9.60203ZM8.49487 8.54117C10.1546 6.88211 12.8454 6.88211 14.5051 8.54117C16.1649 10.2004 16.1649 12.8906 14.5051 14.5498C14.113 14.9417 13.6628 15.2413 13.1821 15.4482C13.8244 16.4819 14.6215 17.4929 15.5657 18.4368C16.5102 19.3809 17.5218 20.1777 18.5561 20.8199C18.7631 20.3392 19.0629 19.889 19.455 19.497C21.1147 17.838 23.8055 17.838 25.4652 19.497C27.1251 21.1563 27.1251 23.8465 25.4652 25.5057C24.5331 26.4375 23.2749 26.8456 22.0597 26.7312C18.7962 26.7006 15.057 24.997 12.0304 21.9716C9.00384 18.9462 7.2994 15.2084 7.26879 11.9458C7.15435 10.7309 7.5627 9.47298 8.49487 8.54117Z" fill="white"/>
</svg>
