<svg width="24" height="24" viewBox="0 0 24 24" fill="none" xmlns="http://www.w3.org/2000/svg">
<path fill-rule="evenodd" clip-rule="evenodd" d="M8.44462 4.60203C7.37066 3.52849 5.62929 3.52849 4.55533 4.60203C3.94642 5.21071 3.68247 6.03286 3.76456 6.82926C3.76704 6.8534 3.76836 6.87764 3.7685 6.9019C3.78433 9.69148 5.26502 13.086 8.09086 15.9107C10.9167 18.7354 14.3126 20.2157 17.1036 20.2315C17.1278 20.2316 17.1521 20.233 17.1762 20.2354C17.9732 20.3175 18.7958 20.0536 19.4048 19.4449C20.4786 18.3715 20.4786 16.6313 19.4048 15.5579C18.3308 14.4844 16.5894 14.4844 15.5155 15.5579C15.0893 15.9839 14.8331 16.513 14.7448 17.0645C14.7065 17.3043 14.5543 17.5108 14.3365 17.6184C14.1188 17.726 13.8624 17.7215 13.6485 17.6063C12.2043 16.8282 10.7932 15.785 9.50528 14.4977C8.2174 13.2103 7.17381 11.7997 6.39541 10.356C6.2801 10.1421 6.27554 9.88565 6.38316 9.66782C6.49078 9.44999 6.69726 9.29779 6.93718 9.25944C7.4891 9.17121 8.01841 8.91502 8.44462 8.48898C9.51843 7.4156 9.51843 5.67542 8.44462 4.60203ZM3.49487 3.54117C5.15458 1.88211 7.84537 1.88211 9.50507 3.54117C11.1649 5.20039 11.1649 7.89063 9.50507 9.54985C9.11305 9.94172 8.66278 10.2413 8.18207 10.4482C8.82444 11.4819 9.62149 12.4929 10.5657 13.4368C11.5102 14.3809 12.5218 15.1777 13.5561 15.8199C13.7631 15.3392 14.0629 14.889 14.455 14.497C16.1147 12.838 18.8055 12.838 20.4652 14.497C22.1251 16.1563 22.1251 18.8465 20.4652 20.5057C19.5331 21.4375 18.2749 21.8456 17.0597 21.7312C13.7962 21.7006 10.057 19.997 7.03041 16.9716C4.00384 13.9462 2.2994 10.2084 2.26879 6.9458C2.15435 5.73087 2.5627 4.47298 3.49487 3.54117Z" fill="white"/>
</svg>
