<svg width="12" height="12" viewBox="0 0 12 12" fill="none" xmlns="http://www.w3.org/2000/svg">
<path d="M3.73602 8.76635C3.88312 8.91214 4.12055 8.91108 4.26635 8.76398C4.41214 8.61688 4.41108 8.37945 4.26398 8.23366L3.38249 7.36C3.02475 7.00543 2.77935 6.76141 2.6133 6.55465C2.55933 6.48745 2.51723 6.4283 2.48454 6.375L10 6.375C10.2071 6.375 10.375 6.20711 10.375 6C10.375 5.79289 10.2071 5.625 10 5.625L2.48454 5.625C2.51723 5.5717 2.55933 5.51255 2.6133 5.44535C2.77935 5.23859 3.02475 4.99457 3.38249 4.64L4.26398 3.76635C4.41108 3.62055 4.41214 3.38312 4.26635 3.23602C4.12055 3.08892 3.88312 3.08786 3.73602 3.23366L2.83865 4.12305C2.50066 4.45802 2.22443 4.7318 2.02853 4.97573C1.82481 5.22939 1.67735 5.48686 1.63795 5.79592C1.62932 5.86368 1.625 5.93184 1.625 6C1.625 6.06816 1.62932 6.13633 1.63795 6.20408C1.67735 6.51314 1.82481 6.77061 2.02853 7.02427C2.22443 7.26821 2.50067 7.54198 2.83866 7.87696L3.73602 8.76635Z" fill="#202454"/>
</svg>
