<svg width="21" height="21" viewBox="0 0 21 21" fill="none" xmlns="http://www.w3.org/2000/svg">
<g clip-path="url(#clip0_1963_146061)">
<path fill-rule="evenodd" clip-rule="evenodd" d="M2.91588 1.63379C2.73591 1.63379 2.56331 1.70528 2.43605 1.83254C2.3088 1.95979 2.2373 2.13239 2.2373 2.31236V18.0266C2.2373 18.2066 2.3088 18.3792 2.43605 18.5065C2.56331 18.6337 2.73591 18.7052 2.91588 18.7052H12.9159C13.0958 18.7052 13.2684 18.6337 13.3957 18.5065C13.523 18.3792 13.5944 18.2066 13.5944 18.0266V15.1695C13.5944 14.7553 13.9302 14.4195 14.3444 14.4195C14.7587 14.4195 15.0944 14.7553 15.0944 15.1695V18.0266C15.0944 18.6044 14.8649 19.1586 14.4564 19.5671C14.0478 19.9757 13.4937 20.2052 12.9159 20.2052H2.91588C2.33808 20.2052 1.78395 19.9757 1.37539 19.5671C0.966832 19.1586 0.737305 18.6044 0.737305 18.0266V2.31236C0.737305 1.73457 0.966832 1.18044 1.37539 0.771878C1.78395 0.363317 2.33808 0.133789 2.91588 0.133789H12.9159C13.4937 0.133789 14.0478 0.363317 14.4564 0.771878C14.8649 1.18044 15.0944 1.73457 15.0944 2.31236V5.1695C15.0944 5.58372 14.7587 5.9195 14.3444 5.9195C13.9302 5.9195 13.5944 5.58372 13.5944 5.1695V2.31236C13.5944 2.13239 13.523 1.9598 13.3957 1.83254C13.2684 1.70528 13.0958 1.63379 12.9159 1.63379H2.91588Z" fill="#4ABBF3"/>
<path fill-rule="evenodd" clip-rule="evenodd" d="M9.30859 10.1699C9.30859 9.75571 9.64438 9.41992 10.0586 9.41992H20.0586C20.4728 9.41992 20.8086 9.75571 20.8086 10.1699C20.8086 10.5841 20.4728 10.9199 20.0586 10.9199H10.0586C9.64438 10.9199 9.30859 10.5841 9.30859 10.1699Z" fill="#4ABBF3"/>
<path fill-rule="evenodd" clip-rule="evenodd" d="M16.6708 6.78217C16.9637 6.48928 17.4386 6.48928 17.7315 6.78217L20.5886 9.63931C20.8815 9.93221 20.8815 10.4071 20.5886 10.7L17.7315 13.5571C17.4386 13.85 16.9637 13.85 16.6708 13.5571C16.3779 13.2642 16.3779 12.7893 16.6708 12.4965L18.9977 10.1696L16.6708 7.84283C16.3779 7.54994 16.3779 7.07506 16.6708 6.78217Z" fill="#4ABBF3"/>
</g>
<defs>
<clipPath id="clip0_1963_146061">
<rect width="20" height="20" fill="white" transform="translate(0.773438 0.169922)"/>
</clipPath>
</defs>
</svg>
