<svg width="24" height="24" viewBox="0 0 24 24" fill="none" xmlns="http://www.w3.org/2000/svg">
<path fill-rule="evenodd" clip-rule="evenodd" d="M11.5195 3.75C7.22874 3.75 3.75024 7.22877 3.75024 11.5202C3.75024 15.8117 7.22874 19.2905 11.5195 19.2905C15.8103 19.2905 19.2887 15.8117 19.2887 11.5202C19.2887 10.4406 19.069 9.41429 18.6726 8.482C18.5105 8.10082 18.6881 7.66041 19.0693 7.49832C19.4505 7.33623 19.8909 7.51384 20.053 7.89503C20.5269 9.00957 20.7887 10.2353 20.7887 11.5202C20.7887 13.8096 19.9589 15.9052 18.5837 17.5225L21.5306 20.4697C21.8235 20.7626 21.8235 21.2375 21.5305 21.5304C21.2376 21.8232 20.7628 21.8232 20.4699 21.5303L17.5233 18.5834C15.9059 19.9598 13.8097 20.7905 11.5195 20.7905C6.40015 20.7905 2.25024 16.64 2.25024 11.5202C2.25024 6.40051 6.40015 2.25 11.5195 2.25C13.7918 2.25 15.8748 3.06868 17.4869 4.42634C17.8037 4.69316 17.8443 5.1663 17.5774 5.48313C17.3106 5.79995 16.8375 5.84049 16.5206 5.57366C15.1689 4.43524 13.4252 3.75 11.5195 3.75Z" fill="#202454"/>
</svg>
