<svg width="19" height="19" viewBox="0 0 19 19" fill="none" xmlns="http://www.w3.org/2000/svg">
<path d="M8.71316 1.49592C8.86615 1.02507 9.53228 1.02507 9.68527 1.49592L11.1498 6.00336C11.2182 6.21394 11.4145 6.3565 11.6359 6.3565H16.3753C16.8704 6.3565 17.0762 6.99003 16.6757 7.28103L12.8414 10.0668C12.6623 10.1969 12.5874 10.4276 12.6558 10.6382L14.1203 15.1456C14.2733 15.6165 13.7344 16.008 13.3339 15.717L9.49962 12.9313C9.32049 12.8011 9.07794 12.8011 8.89882 12.9313L5.06456 15.717C4.66403 16.008 4.12512 15.6165 4.27811 15.1456L5.74266 10.6382C5.81108 10.4276 5.73613 10.1969 5.55701 10.0668L1.72275 7.28103C1.32222 6.99003 1.52806 6.3565 2.02315 6.3565H6.76255C6.98396 6.3565 7.18019 6.21394 7.24861 6.00336L8.71316 1.49592Z" fill="#FE9382" stroke="#FE9382" stroke-width="1.02214" stroke-linecap="round" stroke-linejoin="round"/>
</svg>
