<svg width="25" height="25" viewBox="0 0 25 25" fill="none" xmlns="http://www.w3.org/2000/svg">
<path fill-rule="evenodd" clip-rule="evenodd" d="M8.40297 6.16016C8.40297 4.08909 10.0819 2.41016 12.153 2.41016C14.224 2.41016 15.903 4.08909 15.903 6.16016C15.903 8.23122 14.224 9.91016 12.153 9.91016C10.0819 9.91016 8.40297 8.23122 8.40297 6.16016ZM12.153 3.91016C10.9103 3.91016 9.90297 4.91752 9.90297 6.16016C9.90297 7.4028 10.9103 8.41016 12.153 8.41016C13.3956 8.41016 14.403 7.4028 14.403 6.16016C14.403 4.91752 13.3956 3.91016 12.153 3.91016ZM3.63602 15.9766C4.87019 13.1998 7.62395 11.4102 10.6627 11.4102H13.6432C16.682 11.4102 19.4358 13.1998 20.6699 15.9766C21.9101 18.7671 19.8675 21.9102 16.8139 21.9102H7.49206C4.43842 21.9102 2.39582 18.7671 3.63602 15.9766ZM10.6627 12.9102C8.21674 12.9102 6.00016 14.3507 5.00674 16.5858C4.2074 18.3844 5.52391 20.4102 7.49206 20.4102H16.8139C18.782 20.4102 20.0985 18.3844 19.2992 16.5858C18.3058 14.3507 16.0892 12.9102 13.6432 12.9102H10.6627Z" fill="#404040"/>
</svg>
