<svg width="41" height="40" viewBox="0 0 41 40" fill="none" xmlns="http://www.w3.org/2000/svg">
<path fill-rule="evenodd" clip-rule="evenodd" d="M38.2734 19.2231C38.2734 7.75874 34.235 2.5 20.7734 2.5C7.3119 2.5 3.27344 7.75874 3.27344 19.2231C3.27344 27.3819 5.3188 32.3977 11.3504 34.6119V38.4718C11.3504 39.8926 13.133 40.5416 14.0565 39.457L17.1689 35.8014C18.2876 35.8982 19.4875 35.9461 20.7734 35.9461C34.235 35.9461 38.2734 30.6874 38.2734 19.2231ZM17.9125 33.1644C18.8049 33.2353 19.7574 33.2704 20.7734 33.2704C32.164 33.2704 35.5811 28.8531 35.5811 19.2231C35.5811 9.59303 32.164 5.17569 20.7734 5.17569C9.38291 5.17569 5.96575 9.59303 5.96575 19.2231C5.96575 26.0299 7.673 30.2324 12.6965 32.1114V37.8299C12.6965 38.3284 13.322 38.5561 13.646 38.1755L17.9125 33.1644Z" fill="#BFC8D0"/>
<path d="M20.7734 32.3185C19.7442 32.3185 18.7793 32.2827 17.8753 32.2107L13.5535 37.3062C13.2252 37.6932 12.5916 37.4617 12.5916 36.9548V31.1399C7.50287 29.2292 5.77344 24.9558 5.77344 18.0342C5.77344 8.24182 9.23498 3.75 20.7734 3.75C32.3119 3.75 35.7734 8.24182 35.7734 18.0342C35.7734 27.8266 32.3119 32.3185 20.7734 32.3185Z" fill="#9179EE"/>
<path fill-rule="evenodd" clip-rule="evenodd" d="M38.2734 17.9731C38.2734 6.50874 34.235 1.25 20.7734 1.25C7.3119 1.25 3.27344 6.50874 3.27344 17.9731C3.27344 26.1319 5.3188 31.1477 11.3504 33.3619V37.2218C11.3504 38.6426 13.133 39.2916 14.0565 38.207L17.1689 34.5514C18.2876 34.6482 19.4875 34.6961 20.7734 34.6961C34.235 34.6961 38.2734 29.4374 38.2734 17.9731ZM17.9125 31.9144C18.8049 31.9853 19.7574 32.0204 20.7734 32.0204C32.164 32.0204 35.5811 27.6031 35.5811 17.9731C35.5811 8.34303 32.164 3.92569 20.7734 3.92569C9.38291 3.92569 5.96575 8.34303 5.96575 17.9731C5.96575 24.7799 7.673 28.9824 12.6965 30.8614V36.5799C12.6965 37.0784 13.322 37.3061 13.646 36.9255L17.9125 31.9144Z" fill="white"/>
<path d="M15.2025 15.1681L15.1516 15.1963L15.1069 15.2333C14.7611 15.5193 14.2429 16.3043 14.6969 17.2746C15.0751 18.0831 15.918 19.7342 17.3991 20.9783C18.8475 22.195 20.3941 22.8494 21.41 23.0637L21.4738 23.0771H21.532C21.5349 23.0774 21.5409 23.0781 21.5508 23.0794C21.575 23.0828 21.6041 23.0879 21.6499 23.0959L21.7576 22.4802L21.6499 23.0959C21.6578 23.0973 21.6659 23.0987 21.6744 23.1002C21.9871 23.1555 22.7364 23.288 23.3645 22.6622C23.7677 22.2604 24.1357 21.8415 24.294 21.6531C24.4053 21.5517 24.768 21.3414 25.2267 21.4965C26.0954 21.7901 27.1283 22.4526 27.6275 22.7886C28.0141 23.0487 28.889 23.6755 29.2834 23.9603L29.2836 23.9605C29.3164 23.9841 29.3933 24.0616 29.4349 24.1692C29.4681 24.2552 29.4859 24.3736 29.406 24.5446C29.2578 24.8618 28.8066 25.4675 28.1957 25.9972C27.5735 26.5368 26.9262 26.875 26.4074 26.875C26.4093 26.875 26.4075 26.8748 26.4016 26.874C26.3785 26.8708 26.2926 26.8593 26.1224 26.821C25.9312 26.7781 25.6728 26.7107 25.357 26.6157C24.7262 26.4259 23.8797 26.13 22.9021 25.7094C20.9453 24.8676 18.4819 23.5346 16.1757 21.5715C14.7251 20.3368 13.3564 18.6294 12.2907 17.0313C11.216 15.4198 10.4971 13.9914 10.3015 13.3318L10.2878 13.2857L10.2672 13.2422C10.2185 13.1393 10.1498 12.9194 10.1485 12.67C10.1471 12.4292 10.2075 12.199 10.3667 12.0082C10.8918 11.379 11.4477 10.7607 12.6741 10.1674C12.7883 10.1122 12.9672 10.0634 13.1431 10.0606C13.3235 10.0577 13.4174 10.1025 13.455 10.1354C13.9242 10.5469 14.6516 11.2732 15.1416 11.8939C15.3948 12.2145 15.7007 12.6219 15.9557 12.9758C16.0831 13.1528 16.1956 13.3133 16.2812 13.4409C16.3241 13.5049 16.3583 13.5577 16.3835 13.5986C16.4008 13.6265 16.41 13.6428 16.4139 13.6499C16.4161 13.6569 16.4257 13.6873 16.4341 13.7424C16.4448 13.8118 16.4499 13.8971 16.4426 13.9864C16.4278 14.1689 16.3678 14.3155 16.2599 14.4143C15.8937 14.7497 15.3972 15.0603 15.2025 15.1681ZM21.1203 8.14623C21.1199 8.14586 21.1195 8.14551 21.1192 8.14516C21.1195 8.14482 21.1199 8.14446 21.1203 8.14409C21.1293 8.13565 21.1477 8.125 21.1767 8.125C26.1666 8.125 30.1464 11.9223 30.1484 16.5288C30.1476 16.5299 30.1463 16.5314 30.1443 16.5333C30.1353 16.5418 30.1169 16.5524 30.088 16.5524C30.059 16.5524 30.0406 16.5418 30.0316 16.5333C30.0296 16.5314 30.0283 16.5299 30.0275 16.5288C30.0255 11.8743 26.0274 8.16532 21.1767 8.16532C21.1477 8.16532 21.1293 8.15467 21.1203 8.14623ZM21.1203 13.3075C21.1199 13.3072 21.1195 13.3068 21.1192 13.3065C21.1195 13.3061 21.1199 13.3057 21.1203 13.3054C21.1293 13.2969 21.1477 13.2863 21.1767 13.2863C23.1379 13.2863 24.6626 14.7728 24.6646 16.5288C24.6638 16.5299 24.6625 16.5314 24.6604 16.5333C24.6515 16.5418 24.633 16.5524 24.6041 16.5524C24.5752 16.5524 24.5567 16.5418 24.5477 16.5333C24.5457 16.5314 24.5444 16.5299 24.5436 16.5288C24.5416 14.7249 22.9988 13.3266 21.1767 13.3266C21.1477 13.3266 21.1293 13.316 21.1203 13.3075ZM21.1203 10.7269C21.1199 10.7265 21.1195 10.7262 21.1192 10.7258C21.1195 10.7255 21.1199 10.7251 21.1203 10.7247C21.1293 10.7163 21.1477 10.7056 21.1767 10.7056C24.6523 10.7056 27.4045 13.3475 27.4065 16.5288C27.4057 16.5299 27.4044 16.5314 27.4024 16.5333C27.3934 16.5418 27.3749 16.5524 27.346 16.5524C27.3171 16.5524 27.2986 16.5418 27.2897 16.5333C27.2876 16.5314 27.2863 16.5299 27.2855 16.5288C27.2835 13.2996 24.5131 10.746 21.1767 10.746C21.1477 10.746 21.1293 10.7353 21.1203 10.7269Z" fill="white" stroke="white" stroke-width="1.25" stroke-linecap="round"/>
</svg>
