<svg width="32" height="32" viewBox="0 0 32 32" fill="none" xmlns="http://www.w3.org/2000/svg">
<path fill-rule="evenodd" clip-rule="evenodd" d="M3.97809 14.6274H28.1125C28.0183 14.0631 27.853 13.5113 27.6192 12.9853C27.2049 12.0533 26.5861 11.2264 25.8088 10.566C25.0314 9.90562 24.1154 9.42862 23.1287 9.17036C22.4167 8.98402 21.6811 8.915 20.9506 8.96422C20.4823 8.99576 20.0358 8.70068 19.9461 8.24004C19.9202 8.10667 19.9269 7.97413 19.961 7.85209C18.873 6.4838 17.4036 5.45395 15.7257 4.90187C13.6428 4.21655 11.3814 4.31449 9.36554 5.17733C7.34968 6.04018 5.71775 7.60867 4.7757 9.58876C4.0259 11.1648 3.75412 12.9154 3.97809 14.6274ZM29.8476 14.7629C29.7486 13.9132 29.5215 13.081 29.1721 12.295C28.6542 11.1299 27.8808 10.0964 26.9091 9.27086C25.9374 8.44536 24.7924 7.84911 23.559 7.52628C22.96 7.36951 22.3476 7.27918 21.7328 7.25562L21.7315 7.25384C20.4012 5.36246 18.4924 3.94171 16.281 3.21411C13.7873 2.39361 11.0799 2.51087 8.66639 3.5439C6.25292 4.57693 4.29911 6.45479 3.17126 8.82543C2.28969 10.6784 1.96006 12.733 2.20245 14.7474C1.10101 15.0878 0.300781 16.1141 0.300781 17.3274V22.3274C0.300781 25.4754 2.85276 28.0274 6.00078 28.0274H26.0008C29.1488 28.0274 31.7008 25.4754 31.7008 22.3274V17.3274C31.7008 16.132 30.924 15.1181 29.8476 14.7629ZM2.00078 17.3274C2.00078 16.7751 2.4485 16.3274 3.00078 16.3274H29.0008C29.5531 16.3274 30.0008 16.7751 30.0008 17.3274V22.3274C30.0008 24.5365 28.2099 26.3274 26.0008 26.3274H6.00078C3.79164 26.3274 2.00078 24.5365 2.00078 22.3274V17.3274Z" fill="#202454"/>
</svg>
