<svg width="32" height="32" viewBox="0 0 32 32" fill="none" xmlns="http://www.w3.org/2000/svg">
<path d="M19.9225 14.0006C19.8669 13.9193 19.8279 13.8278 19.8077 13.7314C19.7875 13.635 19.7865 13.5355 19.8047 13.4387C19.8229 13.3419 19.86 13.2496 19.9139 13.1672C19.9678 13.0847 20.0374 13.0137 20.1188 12.9581L28.5763 7.16937C28.7405 7.05699 28.9427 7.01446 29.1384 7.05115C29.334 7.08783 29.507 7.20073 29.6194 7.365C29.7318 7.52927 29.7743 7.73145 29.7376 7.92707C29.7009 8.1227 29.588 8.29574 29.4238 8.40812L20.965 14.1956C20.8009 14.308 20.5989 14.3506 20.4034 14.314C20.2079 14.2774 20.0349 14.1647 19.9225 14.0006ZM29.625 24.6369C29.5126 24.801 29.3397 24.9137 29.1442 24.9503C28.9487 24.9868 28.7466 24.9442 28.5825 24.8319L17 16.9094L11.375 20.7581C11.814 21.7236 11.8761 22.8184 11.5491 23.8273C11.2221 24.8362 10.5297 25.6864 9.60789 26.211C8.68607 26.7355 7.60145 26.8964 6.56706 26.662C5.53268 26.4277 4.62329 25.8151 4.01752 24.9445C3.41175 24.0739 3.15338 23.0083 3.29316 21.9569C3.43293 20.9056 3.96075 19.9445 4.77295 19.2624C5.58514 18.5804 6.623 18.2267 7.68268 18.2707C8.74236 18.3148 9.74727 18.7535 10.5 19.5006C10.5073 19.5096 10.5152 19.5179 10.5238 19.5256L15.6713 16.0006L10.5288 12.4806L10.5 12.5006C9.74842 13.2487 8.74432 13.6887 7.68489 13.7344C6.62546 13.78 5.58723 13.4279 4.77408 12.7473C3.96092 12.0667 3.43159 11.1066 3.29001 10.0557C3.14844 9.00479 3.40485 7.9389 4.00889 7.06735C4.61294 6.1958 5.52099 5.58154 6.55473 5.3452C7.58847 5.10885 8.67322 5.26749 9.59599 5.78997C10.5188 6.31245 11.2129 7.16102 11.542 8.16905C11.8712 9.17708 11.8116 10.2718 11.375 11.2381L29.4225 23.5881C29.5052 23.6432 29.5762 23.7142 29.6312 23.7969C29.6863 23.8797 29.7243 23.9726 29.7431 24.0701C29.762 24.1677 29.7613 24.2681 29.741 24.3654C29.7207 24.4627 29.6813 24.5549 29.625 24.6369ZM9.44502 11.4444C9.82949 11.0597 10.0913 10.5697 10.1973 10.0363C10.3033 9.5029 10.2487 8.95003 10.0406 8.44761C9.83239 7.94519 9.47992 7.51577 9.02771 7.21365C8.5755 6.91154 8.04387 6.75028 7.50002 6.75028C6.95618 6.75028 6.42455 6.91154 5.97234 7.21365C5.52013 7.51577 5.16766 7.94519 4.95948 8.44761C4.7513 8.95003 4.69677 9.5029 4.80277 10.0363C4.90878 10.5697 5.17056 11.0597 5.55502 11.4444C5.80939 11.7017 6.11228 11.9059 6.44614 12.0454C6.78001 12.1848 7.13822 12.2566 7.50002 12.2566C7.86183 12.2566 8.22004 12.1848 8.55391 12.0454C8.88777 11.9059 9.19066 11.7017 9.44502 11.4444ZM10.25 22.5006C10.2498 21.8644 10.029 21.2479 9.62525 20.7563C9.22148 20.2646 8.65972 19.9281 8.03569 19.8042C7.41166 19.6803 6.76397 19.7766 6.20297 20.0766C5.64196 20.3767 5.20236 20.862 4.95906 21.4499C4.71576 22.0377 4.68381 22.6918 4.86866 23.3005C5.0535 23.9093 5.44371 24.4351 5.9728 24.7885C6.50188 25.1418 7.13711 25.3007 7.77025 25.2382C8.40338 25.1757 8.99526 24.8956 9.44502 24.4456C9.70102 24.1907 9.90397 23.8875 10.0421 23.5537C10.1803 23.2198 10.251 22.8619 10.25 22.5006Z" fill="#202454"/>
</svg>
