<svg width="32" height="32" viewBox="0 0 32 32" fill="none" xmlns="http://www.w3.org/2000/svg">
<path d="M25.0201 6.98501C23.2371 5.20171 20.9653 3.98722 18.4919 3.49512C16.0186 3.00302 13.455 3.25541 11.1251 4.22038C8.79523 5.18534 6.80385 6.81954 5.40279 8.91631C4.00172 11.0131 3.25391 13.4782 3.25391 16C3.25391 18.5218 4.00172 20.9869 5.40279 23.0837C6.80385 25.1805 8.79523 26.8147 11.1251 27.7796C13.455 28.7446 16.0186 28.997 18.4919 28.5049C20.9653 28.0128 23.2371 26.7983 25.0201 25.015C26.2129 23.8362 27.1599 22.4323 27.8062 20.8848C28.4525 19.3374 28.7853 17.677 28.7853 16C28.7853 14.323 28.4525 12.6626 27.8062 11.1152C27.1599 9.56769 26.2129 8.16386 25.0201 6.98501ZM8.04138 8.04501C9.95468 6.12975 12.4968 4.97213 15.1976 4.78626C15.0114 7.48568 13.8511 10.0256 11.9326 11.9338C10.0229 13.852 7.48178 15.0118 4.78138 15.1975C4.96837 12.4978 6.12639 9.9571 8.04138 8.04501ZM4.77513 16.7038C7.87832 16.52 10.8057 15.2018 13.0001 13C15.2032 10.8098 16.5237 7.88588 16.7101 4.78501C19.4456 4.95059 22.0258 6.11156 23.9641 8.04888C25.9023 9.9862 27.0645 12.5659 27.2314 15.3013C24.132 15.4951 21.21 16.8135 19.0137 19.0089C16.8174 21.2043 15.4978 24.1257 15.3026 27.225C12.5653 27.0608 9.98286 25.8997 8.04321 23.9612C6.10355 22.0227 4.94099 19.441 4.77513 16.7038ZM23.9589 23.9538C22.0453 25.8685 19.5032 27.0256 16.8026 27.2113C16.9961 24.5133 18.1558 21.9755 20.0691 20.0634C21.9823 18.1513 24.5208 16.9931 27.2189 16.8013C27.0322 19.5014 25.8741 22.0426 23.9589 23.955V23.9538Z" fill="#202454"/>
</svg>
