<svg width="32" height="32" viewBox="0 0 32 32" fill="none" xmlns="http://www.w3.org/2000/svg">
<path d="M26.8751 5.12419C25.6731 3.92288 24.0433 3.24805 22.3439 3.24805C20.6445 3.24805 19.0146 3.92288 17.8126 5.12419L5.12514 17.8117C3.92337 19.0133 3.24816 20.6431 3.24805 22.3425C3.24793 24.0419 3.92291 25.6718 5.12451 26.8736C6.32611 28.0753 7.95589 28.7505 9.65532 28.7507C11.3547 28.7508 12.9846 28.0758 14.1864 26.8742L26.8751 14.1867C28.0755 12.9842 28.7497 11.3545 28.7497 9.65544C28.7497 7.95634 28.0755 6.32668 26.8751 5.12419ZM13.1251 25.8117C12.1988 26.7006 10.961 27.1911 9.67715 27.178C8.39336 27.1648 7.16583 26.6491 6.25783 25.7415C5.34984 24.8338 4.8337 23.6065 4.82011 22.3227C4.80652 21.0389 5.29656 19.8009 6.18514 18.8742L12.0001 13.0604L18.9401 19.9992L13.1251 25.8117ZM25.8151 13.1242L20.0001 18.9379L13.0601 11.9992L18.8751 6.18669C19.8015 5.29778 21.0393 4.80729 22.3231 4.82042C23.6069 4.83355 24.8344 5.34925 25.7424 6.25691C26.6504 7.16458 27.1666 8.39192 27.1802 9.67572C27.1938 10.9595 26.7037 12.1975 25.8151 13.1242ZM23.5326 10.4692C23.6731 10.6098 23.752 10.8004 23.752 10.9992C23.752 11.1979 23.6731 11.3886 23.5326 11.5292L20.5326 14.5292C20.3917 14.668 20.2016 14.7456 20.0037 14.7449C19.8059 14.7442 19.6163 14.6653 19.4763 14.5255C19.3363 14.3857 19.2572 14.1962 19.2563 13.9984C19.2554 13.8005 19.3327 13.6103 19.4714 13.4692L22.4714 10.4692C22.541 10.3995 22.6238 10.3441 22.7148 10.3064C22.8059 10.2687 22.9034 10.2492 23.002 10.2492C23.1006 10.2492 23.1982 10.2687 23.2892 10.3064C23.3803 10.3441 23.463 10.3995 23.5326 10.4692Z" fill="#202454"/>
</svg>
